<?xml version="1.0" encoding="UTF-8"?>
<svg id="Capa_2" data-name="Capa 2" xmlns="http://www.w3.org/2000/svg" viewBox="0 0 99.28 95.77">
  <defs>
    <style>
      .cls-1 {
        fill: #2d2d2e;
      }
    </style>
  </defs>
  <g id="Capa_1-2" data-name="Capa 1">
    <g>
      <g>
        <path class="cls-1" d="M69.46,26.24c2.39.28,2.53,2.8,2.26,4.62-.37,2.54-1.3,5.25-3.37,6.94-2.07,1.69-4.65,2.62-7.03,3.81-2.04,1.02-3.75,2.27-5.53,3.67-.99.78-1.31-.52-1.56-1.16-.33-.83-.97-1.63-1.51-2.34-1.14-1.52-2.43-2.94-3.77-4.3-1.59-1.61-3.42-3.22-4.29-5.36-.94-2.31-.95-5.3.29-7.47,1.58-2.75,5.03-2.39,6.94-.14,1.39,1.64,2.2,3.72,2.84,5.72.43,1.33.78,2.68,1.1,4.04.31,1.26.34,2.79,1.01,3.94.7-.29,1.02-1.62,1.32-2.26.43-.92.85-1.84,1.4-2.7,2.07-3.19,5.5-7.51,9.88-7Z"/>
        <path class="cls-1" d="M66.42,0c.58,0,.84,1,.96,1.51,1.04,4.16-1.03,8.5-3.45,11.81-.37.51-.89,1.22-1.5.49-.76-.92-.98-4.18-.93-5.37.07-1.64.66-3.16,1.53-4.55.44-.71.96-1.36,1.45-2.04.45-.64.87-1.34,1.58-1.74.13-.07.25-.1.35-.1Z"/>
        <path class="cls-1" d="M56.54,7.14s.04,0,.06,0c1.2.08,1.29,2.54,1.46,3.35.44,2.15,1.25,4.2,1.54,6.39.38,2.89-.24,5.76-.85,8.56-.17.78-.75,4.43-2.29,3.05-.46-.42-.78-1.04-1.06-1.58-1.32-2.57-2.7-5.68-2.94-8.56-.04-.43.01-.85.1-1.27.3-1.54.68-3.06,1.17-4.56.44-1.36.96-2.72,1.64-3.97.19-.35.64-1.36,1.17-1.4Z"/>
        <path class="cls-1" d="M71.2,9.5c1.39.04.85,3.59.74,4.28-.34,2.13-1.28,4.12-2.59,5.84-1.97,2.59-4.72,4.41-6.78,6.89-.34.41-.92,1.45-1.42,1.59-1.16.32-.02-3.78.05-4.2.43-2.32,1.14-4.48,2.43-6.49,1.4-2.18,4.29-5.5,6.28-7.2.29-.24.89-.73,1.28-.71Z"/>
      </g>
      <path class="cls-1" d="M92.4,45.34c-.14.11,2,1.91.45,3.19s-3,.04-4.55,0c-1.15-.02-7.19,4.48-8.94,5.45-4.97,2.74-16.07,5.46-18.85,9.35-.52.72-1.83,3.22-1.58,3.98s6.62,1.83,8,2.25c3.73,1.14,7.06,2.94,9.92,5.59,1.32,1.22,6.56,7.98,7.34,8.19,1.66.46,3.84-2.31,5.13-3.2,4.05-2.79,10.29-2.52,8.99,3.7-.72,3.45-10.93,11.82-14.55,11.91s-3.78-1.95-5.64-3.91c-3.81-4.01-8.11-8.23-13.39-10.22-4.14-1.56-11.78-2.49-16.07-1.6-3.05.63-7.71,4.31-10.92,5.65-4.66,1.96-9.14,2.55-14.1,1.42-2.19-.5-10-4.08-11.05-3.97-3.62.37-2.19,9.81-8.7,8.58-7.54-1.43-2.45-16.22,1.44-19.4,3.73-3.05,7.46,0,11.09,1.23,8.03,2.72,13.25,3.87,19.21-3.36,2.04-2.48,6.01-9.53,5.68-12.68-.25-2.31-6.43-5.51-8.46-7.07-2.71-2.08-5.25-4.39-7.79-6.67-1.61-.75-6.95,2.02-6.34-2.29-9.19,1.35-6.33-10.22,1.24-10.22,4.3,0,6.21,3.51,8.99,5.82,9.92,8.24,25.19,14.15,38.16,12.05,4.86-.79,14.22-4.58,17.89-7.85,1.74-1.55,2.67-4.02,4.91-5.32,6.94-4.03,11.79,5.72,8.17,9.57-2.56,2.73-5.21-.54-5.65-.18Z"/>
    </g>
  </g>
</svg>