<?xml version="1.0" encoding="UTF-8"?>
<svg id="Capa_2" data-name="Capa 2" xmlns="http://www.w3.org/2000/svg" viewBox="0 0 54.98 53.53">
  <defs>
    <style>
      .cls-1 {
        fill: #fff3de;
      }
    </style>
  </defs>
  <g id="Capa_1-2" data-name="Capa 1">
    <g>
      <path class="cls-1" d="M36.84,36.21c-6.57,6.57-18.83,3.58-21.33-5.42-2.95-10.63,8.04-19.82,18.06-14.95,7.51,3.65,9.13,14.51,3.28,20.37Z"/>
      <path class="cls-1" d="M10.62,27.65c1.36,1.36.36,3.42-1.34,4.01-.86.3-5.64,1.5-6.35,1.5-1.65-.01-3.13-1.42-2.91-3.11.44-3.41,4.99-2.74,7.43-2.75,1,0,2.12-.68,3.17.36Z"/>
      <path class="cls-1" d="M46.18,26.79c1.19-.24,5.97-.21,7.05.15,2.95.99,1.97,5.4-1.47,5.43-.55,0-5.78-1.13-6.28-1.35-2.04-.91-1.52-3.79.69-4.23Z"/>
      <path class="cls-1" d="M7.79,9.01c3.55-.81,4.9,3.13,7.44,4.86,1.08,1.88-.51,4.08-2.57,3.42-1.86-1.99-7.12-2.79-6.71-6.15.11-.91.93-1.92,1.84-2.13Z"/>
      <path class="cls-1" d="M40.24,38.63c.68-.2,1.55-.1,2.16.26,1.64,1.81,8.24,5.19,4.56,8.15-2.8,2.25-4.68-1.33-5.96-3.09-.93-1.27-2.72-2.21-1.88-4.18.16-.36.73-1.03,1.11-1.14Z"/>
      <path class="cls-1" d="M15.42,39.75c1.41-.31,2.54.28,2.63,1.79s-1.27,2.62-2.04,3.89c-.39.64-.48,1.41-.84,1.99-1.14,1.84-3.65,2.66-5.04.61-2.18-3.23,2.8-5.14,4.08-7.49.34-.33.72-.67,1.2-.78Z"/>
      <path class="cls-1" d="M41.8,18.75c-.46-.46-.46-2.13-.2-2.75.2-.47,5.36-4.33,5.98-4.46,3.46-.71,4.78,3.36,1.86,5.25-.42.27-5.11,2.34-5.51,2.42-.57.1-1.75-.08-2.14-.46Z"/>
      <path class="cls-1" d="M30.65,43.73c.85,1,.47,2.62.67,3.71s.89,2.26.81,3.37c-.24,3.44-4.69,3.51-5.29.82-.28-1.23-.23-6.95.5-7.85s2.55-.94,3.31-.05Z"/>
      <path class="cls-1" d="M27.2,9.8c-.85-1-.47-2.62-.67-3.71s-.89-2.26-.81-3.37c.24-3.44,4.69-3.51,5.29-.82.28,1.23.23,6.95-.5,7.85s-2.55.94-3.31.05Z"/>
    </g>
  </g>
</svg>