<?xml version="1.0" encoding="UTF-8"?>
<svg id="Capa_2" data-name="Capa 2" xmlns="http://www.w3.org/2000/svg" viewBox="0 0 94.87 84.14">
  <defs>
    <style>
      .cls-1 {
        fill: #2d2d2e;
      }
    </style>
  </defs>
  <g id="Capa_1-2" data-name="Capa 1">
    <g>
      <path class="cls-1" d="M83.04,69.47c.77,2.08.69,4.72-1.58,5.74-1.12.5-2.02.46-3.11-.14-.4-.22-1.92-1.74-2.29-2.16-1.59-1.81-1.71-4.41-4.21-5.66-8.93-2.55-18.37-5.95-27.73-6.5-2.94-.17-6.3-.32-8.11,2.39.03.34,2.26.95,2.7,1.05,4.87,1.1,14.89.94,18.66,4.05.3.25.84.8,1,1.14.45.95.18,3.16-.13,4.17-.28.9-.9,1.62-1.2,2.5,1.25.17,2.68.43,3.91.78,2.09.59,5.99,1.9,4.06,4.81-1.49,2.23-7.7,2.61-10.2,2.49-3.93-.2-7.58-1.61-11.43-2.23-.76-.34-.76-2.35-.58-3.04.46-1.79,4.1-3.52,3.71-5.97-.06-.25-1.78-.68-2.1-.73-4.58-.72-8.13-.16-12.59.82-2.43.54-5.03,1.01-7.12,2.43-.15.21.17.29.34.33,2.06.4,3.92.17,5.95,1.13,2.03.95,2.94,3.28.96,4.8-2.96,2.27-12,.2-15.8,0-2.97-.16-6.02.66-8.59-1.12-2.44-1.69-.45-4.06,1.19-5.46,2.09-1.79,4.53-3.35,6.67-5.01.76-.59,1.85-.89,2.62-1.49.13-.26-.81-.53-1.07-.74-2.45-1.95-1.79-5.45-.44-7.84,2.38-4.21,6.44-7.25,10.65-9.42.17-.09.31.09.23-.34-.36-.03-.7-.14-1.06-.17-2.2-.17-5.08-.35-7.16.26-1.87.55-4.74,2.04-5.36,4.02-.43,1.37.1,1.12.61,2.03,3.28,5.81-2.66,7.69-6.28,3.9-.49,2.91-4.22,3.81-6.06,1.53,0,0-1.7-1.82-2.08-4.96-.35-2.92,2.04-4.68,2.04-4.68,4.41-3.63,9.4-6.41,14.82-8.25,4.22-1.43,8.02-2.06,12.42-2.39,1.03-.08.6-.21,1.84-.04,4.62.64,6.14,1.84,10.05,3.77,3.5,1.73,6.71,2.92,10.12,5.01,4.93,3.03,9.67,6.41,15.14,8.55,8.18,3.21,17.13,3.96,25.38,7.04,1.06.4,3.25,1.02,3.01,2.51-.37,2.31-4.07,2-5.81,1.93-.72-.03-1.73-.11-2.45-.18-1.19-.12-2.39-.39-3.56-.64Z"/>
      <g>
        <path class="cls-1" d="M64.43,26.33c2.29.75,1.91,3.25,1.29,4.98-.87,2.42-2.33,4.89-4.69,6.12-2.36,1.24-5.08,1.63-7.65,2.32-2.21.59-4.13,1.48-6.15,2.49-1.13.56-1.18-.77-1.3-1.45-.16-.88-.63-1.79-1.01-2.6-.81-1.72-1.79-3.37-2.83-4.97-1.23-1.89-2.7-3.84-3.13-6.11-.46-2.45.13-5.38,1.78-7.26,2.1-2.38,5.41-1.33,6.83,1.25,1.04,1.88,1.41,4.09,1.64,6.18.16,1.39.22,2.79.27,4.18.05,1.3-.22,2.81.21,4.06.75-.14,1.32-1.38,1.75-1.95.61-.81,1.2-1.64,1.91-2.36,2.67-2.71,6.89-6.26,11.08-4.88Z"/>
        <path class="cls-1" d="M66.71.01c.57.12.62,1.15.64,1.67.18,4.28-2.71,8.12-5.75,10.88-.46.42-1.12,1.02-1.56.18-.56-1.06-.12-4.29.17-5.45.4-1.6,1.28-2.97,2.41-4.15.58-.6,1.22-1.14,1.83-1.71.57-.53,1.12-1.14,1.9-1.39.14-.05.26-.05.36-.03Z"/>
        <path class="cls-1" d="M55.6,5.03s.04,0,.06.01c1.16.32.76,2.75.76,3.57,0,2.19.39,4.37.23,6.57-.21,2.9-1.39,5.59-2.55,8.22-.32.73-1.62,4.19-2.85,2.53-.37-.5-.56-1.18-.72-1.76-.78-2.79-1.51-6.1-1.16-8.98.05-.43.19-.83.35-1.23.6-1.45,1.28-2.87,2.06-4.23.7-1.24,1.49-2.47,2.4-3.57.26-.31.9-1.2,1.43-1.13Z"/>
        <path class="cls-1" d="M69.49,10.28c1.36.32.11,3.68-.13,4.34-.76,2.02-2.08,3.78-3.71,5.2-2.44,2.14-5.5,3.37-8.03,5.39-.41.33-1.19,1.24-1.71,1.28-1.2.09.73-3.71.89-4.1.89-2.19,2.02-4.16,3.68-5.87,1.81-1.86,5.31-4.53,7.6-5.79.33-.18,1.02-.53,1.4-.44Z"/>
      </g>
    </g>
  </g>
</svg>