<?xml version="1.0" encoding="UTF-8"?>
<svg id="Capa_2" data-name="Capa 2" xmlns="http://www.w3.org/2000/svg" viewBox="0 0 78.79 91.76">
  <defs>
    <style>
      .cls-1 {
        fill: #2d2d2e;
      }
    </style>
  </defs>
  <g id="Capa_1-2" data-name="Capa 1">
    <g>
      <g>
        <path class="cls-1" d="M45.12,26.24c2.39.28,2.53,2.8,2.26,4.62-.37,2.54-1.3,5.25-3.37,6.94-2.07,1.69-4.65,2.62-7.03,3.81-2.04,1.02-3.75,2.27-5.53,3.67-.99.78-1.31-.52-1.56-1.16-.33-.83-.97-1.63-1.51-2.34-1.14-1.52-2.43-2.94-3.77-4.3-1.59-1.61-3.42-3.22-4.29-5.36-.94-2.31-.95-5.3.29-7.47,1.58-2.75,5.03-2.39,6.94-.14,1.39,1.64,2.2,3.72,2.84,5.72.43,1.33.78,2.68,1.1,4.04.31,1.26.34,2.79,1.01,3.94.7-.29,1.02-1.62,1.32-2.26.43-.92.85-1.84,1.4-2.7,2.07-3.19,5.5-7.51,9.88-7Z"/>
        <path class="cls-1" d="M42.08,0c.58,0,.84,1,.96,1.51,1.04,4.16-1.03,8.5-3.45,11.81-.37.51-.89,1.22-1.5.49-.76-.92-.98-4.18-.93-5.37.07-1.64.66-3.16,1.53-4.55.44-.71.96-1.36,1.45-2.04.45-.64.87-1.34,1.58-1.74.13-.07.25-.1.35-.1Z"/>
        <path class="cls-1" d="M32.2,7.14s.04,0,.06,0c1.2.08,1.29,2.54,1.46,3.35.44,2.15,1.25,4.2,1.54,6.39.38,2.89-.24,5.76-.85,8.56-.17.78-.75,4.43-2.29,3.05-.46-.42-.78-1.04-1.06-1.58-1.32-2.57-2.7-5.68-2.94-8.56-.04-.43.01-.85.1-1.27.3-1.54.68-3.06,1.17-4.56.44-1.36.96-2.72,1.64-3.97.19-.35.64-1.36,1.17-1.4Z"/>
        <path class="cls-1" d="M46.86,9.5c1.39.04.85,3.59.74,4.28-.34,2.13-1.28,4.12-2.59,5.84-1.97,2.59-4.72,4.41-6.78,6.89-.34.41-.92,1.45-1.42,1.59-1.16.32-.02-3.78.05-4.2.43-2.32,1.14-4.48,2.43-6.49,1.4-2.18,4.29-5.5,6.28-7.2.29-.24.89-.73,1.28-.71Z"/>
      </g>
      <path class="cls-1" d="M72.36,38.13c.41.39,4.65-3.19,5.5-.36.4,1.32-.68,1.85-1.27,2.82,3.84.42,1.7,3.4-.7,4.41,2.83,1.2,1.44,3.74-1.23,3.73-1.41,0-3.93-.88-5.2-.68-1.4.23-6.89,3.31-8.99,4.08-2.42.89-6.14,2.39-8.63,2.12-1.47-.16-3.25-1-4.77-1.24-.38-.06-1.23-.37-1.14.26,3.01.98,6,2.02,9.1,2.71,2.53.56,11.04,2.27,12.95,1.19,1.76-1,2.82-5.16,5.92-4.19,1.66,1.11.56,2.83-.12,4.17,3.33-.69,7.21-.34,3.53,3.35,2.5,1.71,1.01,4.04-1.77,3.7-.22.19,1.75,2.48,0,3.35-2.65,1.3-5.73-1.93-7.96-2.27-1.57-.24-3.01.37-4.57.36-3.77-.02-8.48-.6-12.23-1.19-4.16-.65-12.18-3.46-15.62-3.42-4.36.04-9.68,5.42-13.21,7.58,5.71-.1,21.18-6.58,24.06,1.33,1.79,4.93-1.47,8.36-3.61,12.41.11.54,4.11.87,5.13,1.22,4.31,1.47,4.92,5.9.59,7.33-3.36,1.11-15.8,1.36-18.6-.61-4.34-3.04,2.81-8.08,3.79-11.03.26-.79.62-1.45-.28-2l-10.73,3.86,2.82,2.28c1.79,2.43-.35,5.43-2.72,6.45-3.47,1.49-16.7,2.18-20.1.86-1.97-.77-2.63-1.95-2.14-4.06.59-2.58,6.69-4.52,9.09-4.83-1.44-1.21-3.42-1.79-4.77-3.15-8.15-8.21,6.19-22.23,12.77-26.73,5.03-3.44,8.51-4.68,14.74-4.29,7.7.48,13.15.15,20.78-1.79,2.81-.71,11.26-3.15,13.26-4.71,2.21-1.72,1.69-6.13,4.8-7.17,2.18.33,2.12,2.43,1.53,4.15Z"/>
    </g>
  </g>
</svg>