<?xml version="1.0" encoding="UTF-8"?>
<svg id="Capa_2" data-name="Capa 2" xmlns="http://www.w3.org/2000/svg" viewBox="0 0 73.64 112.32">
  <defs>
    <style>
      .cls-1 {
        fill: #2d2d2e;
      }
    </style>
  </defs>
  <g id="Capa_1-2" data-name="Capa 1">
    <g>
      <g>
        <path class="cls-1" d="M45.78,26.34c2.38.37,2.41,2.89,2.08,4.71-.47,2.52-1.51,5.2-3.64,6.8-2.13,1.6-4.75,2.43-7.17,3.53-2.08.94-3.84,2.12-5.67,3.45-1.02.74-1.28-.57-1.52-1.22-.3-.84-.91-1.66-1.42-2.4-1.08-1.56-2.31-3.04-3.6-4.45-1.52-1.67-3.29-3.36-4.08-5.53-.85-2.34-.74-5.33.59-7.45,1.69-2.69,5.12-2.19,6.94.13,1.33,1.69,2.05,3.81,2.62,5.83.38,1.35.67,2.71.94,4.08.26,1.27.23,2.81.86,3.97.71-.26,1.08-1.57,1.41-2.2.47-.9.92-1.81,1.5-2.64,2.2-3.11,5.79-7.29,10.15-6.61Z"/>
        <path class="cls-1" d="M43.78,0c.58.03.8,1.03.9,1.55.87,4.2-1.36,8.45-3.91,11.67-.39.49-.94,1.19-1.51.43-.72-.95-.81-4.21-.71-5.41.13-1.64.79-3.13,1.71-4.48.47-.69,1.02-1.32,1.53-1.98.48-.62.92-1.3,1.65-1.68.13-.07.25-.1.35-.09Z"/>
        <path class="cls-1" d="M33.62,6.74s.04,0,.06,0c1.2.13,1.19,2.59,1.32,3.4.36,2.16,1.09,4.25,1.29,6.44.27,2.9-.47,5.74-1.19,8.52-.2.77-.92,4.4-2.41,2.96-.45-.43-.74-1.07-1-1.62-1.22-2.62-2.48-5.78-2.6-8.67-.02-.43.05-.85.15-1.27.36-1.53.8-3.03,1.35-4.51.49-1.34,1.07-2.68,1.79-3.91.2-.34.69-1.33,1.23-1.35Z"/>
        <path class="cls-1" d="M48.18,9.68c1.39.1.71,3.62.57,4.31-.42,2.11-1.45,4.06-2.82,5.73-2.07,2.51-4.89,4.22-7.05,6.62-.35.39-.98,1.41-1.48,1.53-1.17.28.12-3.78.22-4.19.53-2.3,1.32-4.43,2.68-6.39,1.48-2.13,4.51-5.32,6.56-6.94.3-.23.92-.69,1.31-.66Z"/>
      </g>
      <path class="cls-1" d="M19.27,59.45c-2.47.02-8.38,1.1-7.25,4.6.88,2.74,4.18,3.47,4.45,8.25.19,3.33-1.32,7.72-5.38,7.17-3.42-.47-2.9-2.69-3.53-4.95-1.01-3.66-5.82-6.14-7.14-10.13-2.9-8.76,10.16-13.75,16.67-15.4,8.16-2.07,15.54-2.15,23.44,1.04,6.36,2.56,13.67,10.31,20.01,3.27.64-.71,2.71-3.66,2.31-4.41-3.83-1.94-3.89-7.22,1.21-6-3.48-8.08,8.48-7.88,9.49-.5.5,3.64-.91,4.37-1.9,7.2-1.45,4.16-1.77,6.81-4.78,10.38-4.79,5.67-10.07,7.11-17.34,5.72-1.51-.29-5.19-1.9-6.1-1.87-2.72.1-1.39,5.99-.8,7.71,2.35,6.85,7.3,11.54,9.27,19.63.59,2.41,1.16,9.5,2.48,10.91,1.85,1.97,8.69.14,9.87,4.59,1.92,7.23-11.39,5.94-15.27,4.69-5.36-1.73-4.9-6.66-6.41-11.21-1.61-4.84-4.75-11.66-8.13-15.48-1.17-1.33-3.16-3.89-4.12-.97-1.15,3.48-1.2,10.03-2.03,14.18-.52,2.55-1.88,8.87-3.35,10.74-2.42,3.09-10.66,3.56-14.18,2.55-4.47-1.29-4.88-5.57-.76-7.61,2.75-1.36,5-.31,6.55-3.68,1.94-4.23.99-9.73.98-14.15-.03-8.83-.4-17.65,1.78-26.27Z"/>
    </g>
  </g>
</svg>