<?xml version="1.0" encoding="UTF-8"?>
<svg id="Capa_2" data-name="Capa 2" xmlns="http://www.w3.org/2000/svg" viewBox="0 0 82.43 117.92">
  <defs>
    <style>
      .cls-1 {
        fill: #2d2d2e;
      }
    </style>
  </defs>
  <g id="Capa_1-2" data-name="Capa 1">
    <g>
      <path class="cls-1" d="M15.47,25.94c.15.71,1.01.77,1.54,1.44,1.38,1.75.07,4.93-1.79,5.72-1.55.66-3.56.02-5.03.95-1.5.95-.87,4.12-.41,5.56,2.23,6.97,12.31,9.49,18.73,10.39,10.7,1.51,26.27,3.5,34.01-5.86,2.25-2.72,2.27-4.2,2.73-7.49.2-1.41,1.03-3.08-.01-4.42-1.1-1.41-5.99-.32-7.72-1.97-1.03-.98-2.12-2.95-1.7-4.39.45-1.53,5.05-2.61,6.52-2.64-.11-.92-1.51-.47-2.42-.76-1.87-.59-2.38-2.86-.95-4.25.94-.92,4.28-2.02,5.59-2.12,2.49-.19,9.72,1.96,11.28,3.95.99,1.26.95,4.18.72,5.73s-1.63,3.34-1.7,4.68c-.03.68.52,2.19.59,3.09.82,10.45-2.64,17.33-11.27,23.04-4.92,3.25-10.03,3.14-14.24,5.81-3.12,1.98-4.91,5.56-3.87,9.23,1.49.41,5.73-2.04,7.08-2.93,5.78-3.81,11.33-8.03,18.56-8.82,6-.65,5.78,7.27,4.61,11.16-.93,3.09-3.78,5.81-4.13,8.6-.1.77-.17,1.5.46,2.01,1.59,1.28,5.73-.49,8.46,1.38,3.3,2.27-.29,5.4-2.59,6.6-4.9,2.54-14.68,5.68-20.13,5.13-2.39-.24-4.06-2.78-3.75-5.09.14-1.04,1.81-4.44,2.39-5.52,1.17-2.19,3.41-4.2,3.19-6.74-.4-.41-3.38,2.59-3.87,2.97-5.57,4.32-10.8,8.91-16.75,12.76-1.9,1.23-4.33,2.98-4.26,5.48,2.3-.34,4.06.82,6.09,1.53,2.36.82,4.04.5,5.39,3.09,1.2,2.31.84,5.08-.46,7.27-2.48,4.19-11.85,7.36-16.52,7.41-1.85.02-4.71-.85-4.33-3.19s5.57-4.41,6.55-6.66c-2.1-.85-4.47-.54-6.61-.82-2.79-.37-8.11-2.68-9.18-5.47-2.86-7.42,5.35-10.72,8.27-15.41,2.5-4.02-.94-6.7-2.85-9.87-1.02-1.68-2.31-4.35-2.84-6.23-.6-2.15-.04-3.08-1.96-4.6-1.22-.96-2.7-1.41-3.98-2.19-4.67-2.86-8.67-6.91-11.04-11.91C.73,49.21-.18,41.8.03,39.14c.13-1.58.92-3.52.95-5.03.06-3.13-1.63-6.67.09-9.55.41-.69,1.09-1.11,1.55-1.72,1.7-2.28,2.48-4.61,5.98-4.21.58.07,1.07.52,1.71.34.36-.1,2.03-1.88,2.58-2.25,1.94-1.3,4.25-1.38,5.96.35,1.29,1.3,1.31,2.7.67,4.35-.59,1.52-2.54,3.9-4.05,4.53Z"/>
      <g>
        <path class="cls-1" d="M49.7,27.23c2.46.39,2.49,2.99,2.15,4.86-.48,2.61-1.56,5.37-3.76,7.03-2.21,1.66-4.91,2.51-7.41,3.64-2.15.97-3.97,2.19-5.86,3.56-1.05.76-1.33-.59-1.57-1.27-.31-.87-.94-1.72-1.46-2.48-1.12-1.62-2.39-3.14-3.72-4.6-1.57-1.72-3.4-3.47-4.21-5.71-.88-2.42-.77-5.51.61-7.7,1.74-2.78,5.29-2.26,7.17.14,1.37,1.75,2.12,3.94,2.7,6.02.39,1.39.69,2.8.98,4.22.26,1.32.24,2.9.89,4.11.74-.27,1.12-1.63,1.46-2.28.48-.93.95-1.87,1.55-2.73,2.27-3.21,5.99-7.53,10.49-6.83Z"/>
        <path class="cls-1" d="M47.63,0c.6.03.82,1.07.93,1.6.9,4.34-1.41,8.73-4.04,12.06-.4.51-.97,1.23-1.56.44-.75-.98-.84-4.36-.74-5.59.14-1.69.81-3.24,1.77-4.63.49-.71,1.05-1.36,1.58-2.05.5-.64.95-1.35,1.7-1.74.14-.07.26-.1.37-.09Z"/>
        <path class="cls-1" d="M37.14,6.97s.04,0,.07,0c1.24.14,1.23,2.68,1.37,3.52.37,2.24,1.12,4.39,1.33,6.66.27,2.99-.49,5.94-1.23,8.8-.21.8-.96,4.55-2.49,3.06-.46-.45-.77-1.11-1.03-1.68-1.26-2.71-2.56-5.97-2.68-8.96-.02-.45.05-.88.15-1.31.37-1.58.83-3.14,1.39-4.66.51-1.38,1.1-2.77,1.85-4.04.21-.35.71-1.38,1.27-1.39Z"/>
        <path class="cls-1" d="M52.18,10.01c1.44.1.73,3.74.59,4.45-.43,2.18-1.49,4.2-2.91,5.92-2.13,2.59-5.05,4.36-7.29,6.84-.37.41-1.01,1.46-1.53,1.59-1.21.29.13-3.9.23-4.33.54-2.38,1.36-4.58,2.77-6.6,1.53-2.2,4.66-5.5,6.78-7.17.31-.24.95-.71,1.35-.69Z"/>
      </g>
    </g>
  </g>
</svg>