<?xml version="1.0" encoding="UTF-8"?>
<svg id="Capa_2" data-name="Capa 2" xmlns="http://www.w3.org/2000/svg" viewBox="0 0 89.1 111.27">
  <defs>
    <style>
      .cls-1 {
        fill: #2d2d2e;
      }
    </style>
  </defs>
  <g id="Capa_1-2" data-name="Capa 1">
    <g>
      <g>
        <path class="cls-1" d="M56.86,26.4c2.32.65,2.05,3.16,1.51,4.92-.76,2.45-2.11,4.98-4.42,6.32-2.31,1.34-5,1.85-7.54,2.65-2.18.69-4.06,1.65-6.04,2.75-1.1.61-1.21-.72-1.36-1.4-.2-.87-.7-1.76-1.12-2.55-.89-1.68-1.93-3.29-3.04-4.84-1.32-1.84-2.86-3.72-3.39-5.97-.57-2.43-.11-5.38,1.47-7.33,2-2.47,5.35-1.56,6.88.95,1.12,1.84,1.58,4.02,1.91,6.1.21,1.38.34,2.77.45,4.16.1,1.29-.1,2.81.38,4.05.74-.17,1.26-1.43,1.66-2.02.57-.84,1.13-1.69,1.81-2.44,2.55-2.83,6.62-6.55,10.86-5.35Z"/>
        <path class="cls-1" d="M58,0c.57.1.67,1.12.71,1.64.37,4.27-2.36,8.23-5.27,11.12-.45.44-1.07,1.07-1.55.24-.61-1.03-.3-4.28-.07-5.45.33-1.61,1.15-3.02,2.23-4.25.55-.63,1.17-1.19,1.75-1.79.55-.56,1.07-1.18,1.83-1.47.14-.05.26-.06.36-.05Z"/>
        <path class="cls-1" d="M47.11,5.5s.04,0,.06,0c1.17.27.87,2.71.91,3.53.1,2.19.58,4.35.51,6.55-.08,2.91-1.15,5.65-2.19,8.32-.29.75-1.44,4.26-2.74,2.65-.39-.48-.61-1.15-.8-1.73-.9-2.75-1.77-6.03-1.55-8.92.03-.43.15-.84.29-1.24.54-1.47,1.16-2.92,1.87-4.32.65-1.27,1.38-2.53,2.24-3.67.24-.32.84-1.24,1.38-1.19Z"/>
        <path class="cls-1" d="M61.22,10.14c1.37.26.27,3.68.06,4.34-.67,2.05-1.92,3.86-3.48,5.36-2.35,2.24-5.35,3.61-7.79,5.73-.4.35-1.14,1.29-1.65,1.35-1.19.14.57-3.73.72-4.14.8-2.23,1.84-4.24,3.42-6.03,1.72-1.94,5.11-4.75,7.34-6.11.32-.2,1-.58,1.38-.5Z"/>
      </g>
      <path class="cls-1" d="M81.13,60.25c1.13,3.31-.18,5.68-3.65,3.82-.99-.53-2.43-2.3-3.06-2.58-.91-.41-9.38.25-11.45.17-5.85-.24-16.6-3.12-21.53-1.42-1.51.52-5,2.6-2.45,3.89l10.58-.73c4.49.35,7.47.93,10.94,3.9,1.58,1.35,7.1,8.55,7.83,8.76,2.16.63,4.97-3.17,6.96-4.18,5.99-3.03,11.02.86,6.68,6.68-2.2,2.95-10.83,10.07-14.44,10.27-4.23.23-5.84-4.52-8.27-7.25-2.28-2.58-5.85-5.74-9.39-6.12-1.93-.21-9.36.63-10.18,2.43-.68,1.49.75,6.61.87,8.63.28,4.68-1.01,7.51-1.36,11.67-.4,4.61,3.18,2.99,6.32,3.81,1.7.45,4.08,1.78,4.49,3.62,1.48,6.62-10.78,5.81-14.56,5.38-12.43-1.41-6.63-6.35-6.16-14.61.82-14.25-12.91-23.56-11.55-35.86.6-5.4,3.85-6.57.33-12.16-1.87-2.97-8.83-10.67-12.13-11.49-2.11-.52-6.68-.01-5.87-3.86.75-3.55,5.96-4.65,9.04-3.89s10.85,7.05,14.2,9.07c13.06,7.88,36.62,17.15,51.94,15.32,3.91-.47,8.66-5.74,12.39-2.79,4.19,3.32-1.63,11.02-6.53,9.53Z"/>
    </g>
  </g>
</svg>