<?xml version="1.0" encoding="UTF-8"?>
<svg id="Capa_2" data-name="Capa 2" xmlns="http://www.w3.org/2000/svg" viewBox="0 0 334.5 82.66">
  <defs>
    <style>
      .cls-1 {
        fill: #2d2d2e;
      }
    </style>
  </defs>
  <g id="Capa_1-2" data-name="Capa 1">
    <g>
      <g>
        <g>
          <path class="cls-1" d="M52.64,29.97c1.81.21,1.91,2.12,1.72,3.5-.28,1.93-.99,3.98-2.55,5.26-1.57,1.28-3.52,1.98-5.33,2.88-1.55.78-2.84,1.72-4.19,2.78-.75.59-.99-.4-1.19-.88-.25-.63-.74-1.23-1.14-1.78-.86-1.15-1.84-2.23-2.86-3.26-1.2-1.22-2.59-2.44-3.25-4.06-.72-1.75-.72-4.01.22-5.66,1.2-2.08,3.81-1.81,5.26-.11,1.06,1.24,1.67,2.82,2.16,4.34.33,1.01.59,2.03.84,3.06.23.96.26,2.12.77,2.98.53-.22.77-1.22,1-1.71.33-.69.64-1.4,1.06-2.04,1.57-2.42,4.17-5.69,7.49-5.31Z"/>
          <path class="cls-1" d="M50.34,10.08c.44,0,.63.76.73,1.14.78,3.15-.78,6.44-2.61,8.95-.28.38-.67.93-1.13.37-.58-.7-.74-3.17-.7-4.07.05-1.24.5-2.4,1.16-3.45.34-.54.73-1.03,1.1-1.55.34-.48.66-1.01,1.2-1.32.1-.06.19-.08.27-.08Z"/>
          <path class="cls-1" d="M42.85,15.49s.03,0,.05,0c.91.06.98,1.93,1.1,2.54.34,1.63.95,3.19,1.17,4.84.29,2.19-.19,4.36-.64,6.49-.13.59-.57,3.36-1.73,2.31-.35-.31-.59-.79-.8-1.2-1-1.95-2.05-4.3-2.23-6.49-.03-.33.01-.65.07-.96.23-1.17.52-2.32.88-3.45.33-1.03.73-2.06,1.24-3.01.14-.27.48-1.03.89-1.06Z"/>
          <path class="cls-1" d="M53.96,17.28c1.06.03.64,2.72.56,3.24-.26,1.61-.97,3.12-1.96,4.42-1.49,1.96-3.57,3.34-5.14,5.22-.26.31-.7,1.1-1.08,1.21-.88.25-.02-2.86.04-3.18.33-1.76.87-3.4,1.84-4.92,1.06-1.66,3.25-4.17,4.76-5.45.22-.18.68-.55.97-.54Z"/>
        </g>
        <path class="cls-1" d="M70.03,44.44c-.1.09,1.52,1.45.34,2.41s-2.27.03-3.45,0c-.87-.02-5.45,3.4-6.77,4.13-3.76,2.08-12.18,4.13-14.28,7.09-.39.55-1.39,2.44-1.2,3.02s5.02,1.38,6.06,1.7c2.83.86,5.35,2.23,7.52,4.24,1,.92,4.97,6.05,5.56,6.21,1.26.35,2.91-1.75,3.89-2.43,3.07-2.12,7.8-1.91,6.81,2.8-.55,2.62-8.29,8.96-11.03,9.03s-2.86-1.48-4.27-2.96c-2.89-3.04-6.14-6.24-10.15-7.75-3.14-1.18-8.93-1.89-12.18-1.21-2.31.48-5.84,3.26-8.27,4.28-3.53,1.48-6.93,1.93-10.69,1.08-1.66-.38-7.58-3.09-8.38-3.01-2.74.28-1.66,7.44-6.59,6.5-5.72-1.09-1.86-12.29,1.09-14.7s5.65,0,8.4.93c6.09,2.06,10.04,2.93,14.56-2.55,1.55-1.88,4.56-7.22,4.3-9.61-.19-1.75-4.87-4.18-6.41-5.36-2.05-1.58-3.98-3.33-5.91-5.05-1.22-.57-5.27,1.53-4.8-1.74-6.97,1.02-4.8-7.74.94-7.74,3.26,0,4.71,2.66,6.81,4.41,7.52,6.25,19.09,10.72,28.92,9.13,3.68-.6,10.78-3.47,13.56-5.95,1.32-1.17,2.02-3.04,3.72-4.03,5.26-3.06,8.94,4.33,6.19,7.26-1.94,2.07-3.95-.41-4.28-.14Z"/>
      </g>
      <path class="cls-1" d="M24.56,17.83c.34,2.61,1.37,5.85,1.47,8.42.13,3.55-5.04,3.05-4.05.24.57-1.62,2.2-1.17,2.36-1.71l-.46-3.18-3.65.7c-.76,2.56,2.22,6.77-1.29,8.03-4.08,1.47-4.11-4.69.18-3.98-.06-1.41-1.34-6.12-.83-7.14.34-.69,5.65-1.78,6.27-1.39Z"/>
      <path class="cls-1" d="M72.14,64.12c-.61-.59,2.42-1.89.96-3.86-.07-.09-1.01-.86-1.08-.89-.45-.2-.33.3-.42.52-.73,1.99-.75,5.77-3.38,5.91-4.77.25-2.74-5.87,1.3-3.58.29-.21,1.28-5.88,2.03-6.89.16-.21.38-.53.68-.48.78.54.77,1.56,1.2,2.38.65,1.22,1.85,2.38,1.8,3.91s-1.45,3.27-3.1,2.98Z"/>
    </g>
    <g>
      <path class="cls-1" d="M151.24,68.09c-1.65.03-3.2,1.65-3.72-.61-.4-1.71-.19-2.9-1-4.72-3.05-6.87-10.56-5.15-15.21-9.53-.64-.61-1.73-1.71-1.6-2.52,5.72,3.9,11.72-.28,13.07-6.41.37-1.69.05-4.12,1.02-5.39.71-.93,2.54-.99,1.38-2.52-.54-.71-1.02-.41-1.33-.62-.15-.1-.18-.62-.4-.86-.54-.6-1.17-.33-1.77-.53-1.35-.45-1.04-1.07-2.85-.21-2.85,1.35-2.32,4.17-2.97,6.65-1.14,4.3-4.46,3.11-5.76-.36-.21-.55-.55-1.63-.83-2.74-.39-1.52-2.12-2.25-3.48-1.46l-4.01,2.34c-.34.2-.63.48-.83.82-3.01,5.13-3.33,11.04-3.05,16.9.17,3.46,1.21,7.79.68,11.2-.58,3.74-5.77,1.79-7.64,5.42-1.84,3.58-.13,8.06,3.8,9.21,2.1.62,7.14.71,6.84-2.48-.24-2.53-2.85-1.74-3.68-2.28-1.03-.68.77-1.29,1.37-1.39,2.6-.44,4.37.07,6.32-2.39,2.56-3.22.23-9.05,4.41-10.48,4.32-1.49,8.44,3.62,9.95,7.11,1.37,3.19.96,7.69,5.58,7.5,2.98-.13,8.57-3.23,9.18-6.41.42-2.2-1.47-3.27-3.46-3.23Z"/>
      <path class="cls-1" d="M144.07,39.71l1.25-.66c.54-.29,1.2-.27,1.72.06.92.56,1.83,1.13,2.83,1.56.88.38,3.75,1.02,4.05,1.22.76.5-1.17,2.08-1.56,2.8-.45.83-.48,1.67-1.08,2.36-1.32-1.76-2.81-3.46-4.46-4.92-.72-.63-1.89-1.22-2.51-1.84-.19-.19-.33-.2-.24-.55Z"/>
      <path class="cls-1" d="M155.92,42.26c1.25-.25,1.31.93,1.19,1.89-.18,1.43-2.74,5.44-4.41,4.92-2.01-.63,1.54-6.48,3.22-6.81Z"/>
      <path class="cls-1" d="M133.64,31.26c1.25-.43,1.24.42,1.83.85.76.55,1.67.88,2.37,1.52l-1.45,1.23c-.69-.26-1.13-.89-1.77-1.21-.46-.23-1.19-.02-1.48-.59-.26-.51-.07-1.6.5-1.8Z"/>
      <g>
        <path class="cls-1" d="M130.54,20.21c1.61-.05,1.94,1.61,1.94,2.84,0,1.71-.35,3.6-1.56,4.91-1.21,1.31-2.82,2.18-4.28,3.19-1.25.87-2.26,1.86-3.3,2.96-.58.61-.91-.22-1.15-.62-.3-.52-.8-.98-1.22-1.4-.9-.89-1.89-1.71-2.9-2.48-1.2-.91-2.57-1.8-3.35-3.13-.85-1.43-1.14-3.41-.52-4.96.78-1.97,3.1-2.06,4.57-.76,1.08.95,1.81,2.25,2.43,3.51.41.84.77,1.7,1.12,2.56.32.8.49,1.81,1.05,2.51.44-.26.52-1.17.66-1.62.2-.65.38-1.3.67-1.92,1.06-2.31,2.91-5.49,5.86-5.58Z"/>
        <path class="cls-1" d="M126,3.16c.38-.05.65.58.78.9,1.08,2.65.14,5.72-1.14,8.14-.2.37-.47.89-.94.47-.59-.54-1.05-2.67-1.13-3.46-.11-1.09.13-2.15.57-3.15.23-.51.51-.99.76-1.49.24-.47.45-.97.88-1.3.08-.06.15-.09.22-.1Z"/>
        <path class="cls-1" d="M120.16,8.83s.03,0,.04,0c.8-.06,1.1,1.56,1.29,2.07.5,1.38,1.23,2.66,1.63,4.07.53,1.87.39,3.83.26,5.74-.04.53-.07,3-1.22,2.24-.35-.23-.62-.61-.85-.94-1.12-1.57-2.33-3.49-2.76-5.38-.06-.28-.07-.57-.06-.85.05-1.05.16-2.09.33-3.12.16-.94.37-1.89.7-2.78.09-.25.29-.96.64-1.04Z"/>
        <path class="cls-1" d="M130.08,8.98c.93-.11.91,2.29.9,2.76-.02,1.44-.45,2.85-1.15,4.11-1.05,1.9-2.69,3.37-3.82,5.21-.18.3-.47,1.05-.78,1.19-.73.32-.38-2.5-.37-2.78.06-1.58.33-3.07.98-4.52.71-1.58,2.31-4.05,3.46-5.36.17-.19.52-.57.78-.6Z"/>
      </g>
    </g>
    <g>
      <path class="cls-1" d="M239.72,71.3c-1,.32-3.09,1.98-3.51,2.02-.66.06-1.86-1.33-2.16-1.95,2.56-.87,5.34-2.76,6.99-4.92.85-1.1.27-.75.14-1.54-.15-1,1.09-.91,1.67-1.45,1.38-1.29,3.61-9.36,2.76-10.75-.27-.44-1.36-.43-1.04-1.67.06-.23.97-.42.93-1.87-.07-2.46-2.05-6.87-3.48-8.9-.77-1.08-2.24-2.08-2.25-3.36-.91-.03-1.9.71-2.46-.34l.18-.69c-5.93-4.29-14.2-3.58-19.49,1.37l-3.54,4.23c-1.25-1.31-1.85-2.55-1.88-3.73-.06-2.23-2.13-3.87-4.34-3.56l-2.76.39c-1.24.17-2.41.68-3.36,1.49-7.38,6.25-8.67,17.43.46,23.25,1.69,1.08,2.38.42,2.6,2.9.51,5.89-3.08,7.67-6.54,11.11-4.79,4.77,1.27,9.06,6.18,9.18,1.52.04,4.88-.33,5.15-2.21.4-2.76-3.19-2.95-3.19-3.42.88-.86,2.18-1.12,3.27-1.76,1.49-.88,2.69-2,3.69-3.41.51-.72.75-2.24,1.85-2.25.41,0,2.08.64,2.56.85,2.29.99,5.08,3.06,6.95,4.73,4.03,3.59,5.38,8.35,11.73,5.55,2.27-1,7.75-4.83,7.13-7.67-.43-1.98-2.64-2.13-4.27-1.6ZM220.07,66.55c-.48-.39-1.59-1.81-2-1.92-.43-.11-1.86.28-2.7.2-1.82-.18-3.4-1.56-3.55-3.43,1.11.29,1.33,1.45,2.5,1.73,5.68,1.36,8.08-6.22,2.92-8.42-2.05-.87-4.27-.5-6.45-1.11-5.02-1.41-6.73-5.88-5.85-10.75.56-.07.36,0,.48.32,1.37,3.75,1.94,6.87,6.27,8.39,2.89,1.01,2.11.48,2.44-1.69,3.28-21.57,30.86-17.52,29.29,4.32-.87,12.09-12.8,20.91-23.37,12.37Z"/>
      <path class="cls-1" d="M247.51,33.27c1.12-.15,1.88.88,2.58,1.67,1.65,1.85,5.55,9.11,4.46,11.35-.21.43-6.29,3.26-6.87,3.22-.27-.02-.46-.11-.54-.39-.1-3.08-1.21-6.66-2.92-9.22-.5-.76-2.77-2.9-2.81-3.38-.02-.27.14-.37.29-.54.33-.4,5.2-2.61,5.8-2.69Z"/>
      <path class="cls-1" d="M254.56,47.96c.96.11.09,3.13.31,3.9-.22,1.89-1.21,5.86-2.16,7.46-.7,1.17-6.09,2.65-7.54,3.45l-.33-.55c1.53-2.45,2.52-5.83,2.68-8.73.04-.61-.43-1.14-.06-1.94.44-.96,5.93-2.77,7.1-3.59Z"/>
      <path class="cls-1" d="M252.38,62.31c-.26-.76.79-1.35.88-1.76.08-.35-.26-.75-.17-1.07s.73-.47,1-.85c.95-1.35,2.09-5.96,2.2-7.65.1-1.6-.56-3.19.42-4.4.05-.48-.76-.74-.83-1.13-.05-.3.22-.88.13-1.52-.4-2.85-3.32-8.41-5.56-10.25-.53-.43-1.3-.12-.85-1.24l-.18-.25c-2.18-.77-4.25-1.8-6.48-2.47-1.69-.51-4.6-.79-5.97-1.37-.32-.13-.46-.27-.39-.63,4.35-.98,8.42,1.77,12.36,3.1.57.19,1.16.03,1.78.28,1.17.46.76,1.42,1.19,2.02.18.25.76.44,1.06.78,2.05,2.32,3.37,5.11,4.35,8.02.17.5,1.24,3.83,1.25,4.04.06.75-.38,1.04-.44,1.59-.33,3.2.04,5.39-1.21,8.64-.2.53-1.27,2.25-1.29,2.39-.04.29.4.53.42.87.07,1.14-2.67,2.54-3.66,2.86Z"/>
      <path class="cls-1" d="M235.01,28.61c.39.39,8.89,2.3,10.56,3.06.38.17.94.29.85.86l-6.53,2.66c-3.25-2.38-6.52-3.31-10.53-3.53-.43-.02-1.5.57-1.5-.39,0-1.01,4.76-3.79,6.05-3.71,1.38.08,1.04.98,1.11,1.04Z"/>
      <path class="cls-1" d="M251.23,61.86c.17.14-1.19,1.78-1.36,1.96-1.53,1.55-5.32,3.11-7.44,3.78-.42.13-.82.28-1.27.22-.1-.43.24-.54.46-.8.38-.47,1.95-2.29,2.31-2.5.95-.57,5.04-2.11,6.24-2.47.36-.11.67-.26,1.08-.18Z"/>
      <path class="cls-1" d="M230.1,45.88c6.68-1.24,5.79,8.2-.49,7.48-.75-.09-1.25-.53-1.69-.61-.89-.18-5.54,3.22-6.77,3.68-.83.45-1.59-.9-1.09-1.56.79-1.04,5.25-2.71,6.43-3.88.4-.49.17-1.28.33-1.96.28-1.24,2.02-2.9,3.28-3.14Z"/>
      <g>
        <path class="cls-1" d="M215.74,19.01c1.6.2,1.67,1.88,1.48,3.1-.26,1.7-.9,3.5-2.29,4.61-1.39,1.11-3.12,1.72-4.72,2.5-1.37.67-2.52,1.5-3.72,2.42-.67.51-.87-.36-1.04-.79-.22-.56-.64-1.09-.99-1.57-.75-1.02-1.6-1.98-2.49-2.9-1.05-1.08-2.26-2.17-2.83-3.61-.62-1.55-.6-3.54.24-4.98,1.07-1.83,3.38-1.56,4.64-.05.92,1.1,1.45,2.5,1.87,3.84.28.89.5,1.8.71,2.71.2.84.21,1.87.65,2.64.47-.19.69-1.07.9-1.5.29-.61.58-1.23.95-1.79,1.4-2.12,3.72-4.98,6.64-4.62Z"/>
        <path class="cls-1" d="M213.87,1.46c.39,0,.55.67.63,1.01.67,2.79-.74,5.67-2.38,7.87-.25.34-.6.81-1,.32-.5-.62-.63-2.8-.59-3.6.06-1.1.46-2.11,1.05-3.03.3-.47.65-.9.98-1.35.31-.42.59-.89,1.07-1.15.09-.05.16-.07.24-.07Z"/>
        <path class="cls-1" d="M207.22,6.17s.03,0,.04,0c.8.06.85,1.71.95,2.24.28,1.44.81,2.82.99,4.28.24,1.93-.2,3.84-.62,5.71-.12.52-.53,2.96-1.55,2.02-.31-.28-.52-.7-.7-1.06-.87-1.73-1.77-3.81-1.91-5.74-.02-.29.01-.57.07-.85.21-1.03.47-2.04.81-3.04.3-.9.66-1.81,1.12-2.64.13-.23.43-.9.79-.93Z"/>
        <path class="cls-1" d="M217,7.83c.93.04.55,2.4.47,2.86-.24,1.42-.88,2.74-1.77,3.88-1.33,1.71-3.18,2.92-4.57,4.56-.23.27-.62.96-.96,1.05-.77.21,0-2.52.06-2.8.3-1.55.79-2.99,1.66-4.32.95-1.45,2.9-3.64,4.24-4.77.19-.16.6-.48.86-.47Z"/>
      </g>
    </g>
    <g>
      <path class="cls-1" d="M292.76,49.62c-.63-.52.38-2.77.63-3.5,2.92-8.72,8.08-18.19,10.2-26.91,1.7-6.97-.77-7.26-2.91-12.67-2.92-7.39,4.61-7.1,9.53-5.87,6.34,1.59,14.13,5.74,18.92,10.17,4.17,3.85,9.59,11.92.11,12.94-4.74.51-6.73.25-10.65,3.55-7.02,5.91-11.58,15.79-16.95,23.13-1.7.36-3.37.31-5.09.05-.52-.08-3.58-.74-3.79-.91ZM326.84,21.73c-1.13-.95-2.93-1.35-4.35-1.95-1.86-.78-3.7-1.63-5.51-2.51l-8.01-4.93c-.39.37,4.3,4,4.74,4.31,3.88,2.72,8.37,4.63,13.13,5.08Z"/>
      <path class="cls-1" d="M290.67,61.84c1.2.32,6.13-1.79,6.7-1.62.48.14.75,2.44,1.2,3.17,1.59,2.58,5.58,2.39,7.42.25-3,.9-6.32-.67-5.85-4.14.12-.19,2.21-.02,2.48.06.39.11.68.73,1.13.93,2.93,1.27,5.5-3.69,6.82-5.66,1.49-2.23,6.2-9.15,6.2-11.46,0-2.03-1.67-3.09-3.58-2.41-1.24.44-3.16,3.01-3.6,4.2-.25.67.08,1.56.75,1.21.86-.45,1.11-3.35,3.14-2.48,1.79.76.18,2.39-.06,3.25s.18,1.52-.71,2.04c-.29.17-.76.17-.94.31-.49.4-1.82,3.48-2.48,4.28-.77.94-2.4,1.49-2.81.08-.36-1.26,2.26-4.5,2.9-5.73.24-.53-.71-1.13-1.11-.88-.74.46-2.22,4.22-2.98,4.6s-2.09-.42-1.71-1.48c.35-.98,1.82-3.14,2.44-4.2,2.83-4.86,7.47-14.27,14.39-10.59,7.38,3.93.67,14.33-2.2,19.11-4.27,7.11-9.57,16.21-19.23,15.37-3.56-.31-7.23-3.25-8.23-6.66-.15-.52-.39-1.04-.09-1.56Z"/>
      <path class="cls-1" d="M305.27,53.94c-1.46-2.48-6.14-1.58-8.57-1.74-3.01-.21-7.6-1.38-7.66-5.05.73-.09.59.91,1.31,1.11.2.06.41.09.61.02.58-.2,2.15-6.03,2.66-7,.07-1.35-1.73-.33-2.56-.7-.98-.44-2.12-.29-3.11.11l-1.32.52c-.57.23-1.09.58-1.52,1.03-8.19,8.58-5.41,20.61,8.74,17.62,1.59-.34,4.8-1.82,5.87-1.88.81-.05,1.79.63,2.72.63,2.56.02,4.17-2.4,2.83-4.68Z"/>
      <path class="cls-1" d="M288.98,62.55c.22.22.84,2.26,1.16,2.85,1.03,1.93,2.68,3.71,4.56,4.84.76.46,2.85,1.13,3.18,1.4,1.9,1.54-2.62,6.59-4.71,6.43,3.08,4.08-2.62,4.67-5.59,4.32-3.73-.43-7.13-3.94-4.36-7.51.89-1.15,1.96-1.4,2.96-2.31,1.71-1.54,2.09-3.36,1.94-5.61-.05-.79-1.23-4.56-.53-4.71.29-.07,1.19.08,1.4.3Z"/>
      <path class="cls-1" d="M313.03,65.05c1.21-.34,2.8,2.65,3.15,3.64.6,1.7.54,3.29.68,5.05.39.56,4.76-.59,5.52,2.27,1.34,5.02-10.09,6.32-12.73,3.8-1.64-1.56-.28-5.23-1.95-7.67-.41-.6-1.23-.98-1.46-1.71.07-.32,2.87-1.93,3.41-2.34.61-.46,3.17-2.98,3.39-3.04Z"/>
      <g>
        <path class="cls-1" d="M290.86,22.87c1.53-.49,2.31,1.01,2.65,2.19.47,1.65.65,3.56-.15,5.15-.8,1.59-2.11,2.87-3.24,4.25-.96,1.18-1.66,2.41-2.36,3.75-.39.74-.94.04-1.27-.28-.43-.41-1.04-.72-1.56-1.01-1.11-.61-2.29-1.13-3.47-1.59-1.41-.54-2.96-1.03-4.08-2.09-1.21-1.15-2.03-2.96-1.87-4.63.21-2.11,2.41-2.83,4.19-1.99,1.3.62,2.36,1.66,3.3,2.7.63.69,1.21,1.42,1.78,2.16.53.68.97,1.61,1.7,2.12.35-.37.18-1.26.19-1.74.01-.68,0-1.35.11-2.03.39-2.51,1.29-6.08,4.1-6.97Z"/>
        <path class="cls-1" d="M281.81,7.72c.36-.16.78.38,1,.66,1.77,2.25,1.7,5.46,1.14,8.14-.09.41-.21.99-.78.71-.72-.35-1.74-2.28-2.04-3.02-.41-1.02-.46-2.11-.31-3.19.08-.55.21-1.09.32-1.64.1-.51.16-1.05.48-1.49.06-.08.12-.13.19-.16Z"/>
        <path class="cls-1" d="M277.75,14.78s.02-.01.04-.02c.75-.28,1.48,1.19,1.81,1.64.86,1.19,1.92,2.22,2.69,3.47,1.02,1.65,1.43,3.57,1.83,5.45.11.52.76,2.9-.56,2.49-.4-.13-.76-.42-1.08-.67-1.51-1.21-3.2-2.72-4.14-4.41-.14-.25-.23-.52-.29-.8-.24-1.02-.43-2.05-.54-3.1-.1-.95-.16-1.92-.09-2.87.02-.27.02-1,.33-1.17Z"/>
        <path class="cls-1" d="M287.33,12.19c.86-.36,1.5,1.95,1.62,2.4.38,1.39.35,2.86.02,4.27-.49,2.11-1.66,3.98-2.24,6.06-.09.34-.16,1.14-.43,1.36-.61.51-1.05-2.29-1.12-2.57-.37-1.53-.53-3.04-.3-4.62.25-1.71,1.11-4.52,1.85-6.11.11-.23.35-.69.59-.79Z"/>
      </g>
    </g>
  </g>
</svg>