<?xml version="1.0" encoding="UTF-8"?>
<svg id="Capa_2" data-name="Capa 2" xmlns="http://www.w3.org/2000/svg" viewBox="0 0 101.18 92.31">
  <defs>
    <style>
      .cls-1 {
        fill: #2d2d2e;
      }
    </style>
  </defs>
  <g id="Capa_1-2" data-name="Capa 1">
    <g>
      <g>
        <path class="cls-1" d="M25.6,25.94c-.04-2.41,2.43-2.88,4.28-2.86,2.57.02,5.38.59,7.33,2.41,1.95,1.82,3.21,4.26,4.71,6.45,1.29,1.89,2.75,3.41,4.38,4.99.9.88-.34,1.36-.94,1.71-.78.44-1.48,1.18-2.12,1.81-1.35,1.33-2.59,2.8-3.76,4.31-1.38,1.79-2.74,3.82-4.74,4.97-2.16,1.24-5.12,1.65-7.44.71-2.94-1.2-3.04-4.67-1.07-6.86,1.44-1.6,3.4-2.68,5.29-3.59,1.26-.6,2.56-1.13,3.86-1.64,1.21-.47,2.72-.71,3.77-1.53-.38-.66-1.74-.8-2.41-1.01-.97-.3-1.94-.59-2.86-1.03-3.44-1.62-8.18-4.45-8.26-8.85Z"/>
        <path class="cls-1" d="M0,32.47c-.07-.58.88-.96,1.37-1.15,3.98-1.58,8.56-.12,12.17,1.84.55.3,1.33.72.68,1.42-.81.88-4.01,1.53-5.2,1.64-1.64.15-3.22-.23-4.71-.91-.76-.35-1.48-.77-2.22-1.16-.69-.37-1.44-.68-1.94-1.33-.09-.12-.14-.23-.15-.33Z"/>
        <path class="cls-1" d="M8.4,41.3s0-.04,0-.06c-.08-1.2,2.35-1.62,3.12-1.89,2.07-.73,4-1.81,6.12-2.38,2.81-.76,5.74-.53,8.6-.3.8.06,4.49.15,3.33,1.86-.35.51-.93.91-1.42,1.26-2.37,1.65-5.27,3.44-8.09,4.06-.42.09-.85.1-1.27.08-1.57-.09-3.13-.27-4.67-.55-1.4-.26-2.82-.59-4.16-1.09-.37-.14-1.43-.45-1.54-.97Z"/>
        <path class="cls-1" d="M8.78,26.46c-.15-1.39,3.44-1.32,4.14-1.31,2.15.05,4.25.72,6.13,1.79,2.83,1.6,5,4.08,7.74,5.8.45.28,1.56.72,1.77,1.19.48,1.1-3.74.53-4.17.51-2.36-.12-4.59-.53-6.76-1.54-2.35-1.09-6.02-3.52-7.97-5.26-.28-.25-.84-.79-.88-1.18Z"/>
      </g>
      <path class="cls-1" d="M100.13,84.79c1.69,1.78,1.28,4.91-.81,6.17-3.39,2.04-11.99,1.44-15.78.37-1.32-.37-2.39-.96-3.19-2.1-1.5-2.15-1.5-8.36-2.06-11.33-.4-2.12-2.2-9.61-3.6-10.85-1.74-1.54-3.2-.09-4.6,1.06-3.18,2.6-7.08,6.99-10.05,10.04-2.76,2.84-9.39,11.22-12.31,12.72-2.57,1.33-12.57,1.49-15.72,1.22-8.24-.71-7.44-7.05-.16-9,2.7-.72,5.41-.55,7.99-1.53,3.33-1.26,7.27-5.96,9.63-8.7s10.67-13.03,10.51-16.11c-.08-1.5-1.44-4.09-3.18-3.74-2.33.46-6.92,9.46-7.97,11.8-1.99,4.46-2.78,10.52-6.58,13.51-7.38,5.79-5.93-1.08-4.73-6.13,2.53-10.6,7.48-20.84,10.73-31.22,1.57-5.02,3.94-10.24,1.39-15.13-2.98-5.72-11.01-12.01-16.95-14.42-5.02-2.04-2.96-.54-6.14,1.52-2.67,1.73-4.71.62-4.22-2.63C12.53,17.22,10.53,1,20.73.08c11.57-1.05,27.36,9.06,35.63,16.57,14.92,13.54,29.36,32.1,32.86,52.44.62,3.59.48,7.77,1.18,11.16.76,3.68,6.91,1.59,9.73,4.55Z"/>
    </g>
  </g>
</svg>