<?xml version="1.0" encoding="UTF-8"?>
<svg id="Capa_2" data-name="Capa 2" xmlns="http://www.w3.org/2000/svg" viewBox="0 0 77.38 101.87">
  <defs>
    <style>
      .cls-1 {
        fill: #2d2d2e;
      }
    </style>
  </defs>
  <g id="Capa_1-2" data-name="Capa 1">
    <g>
      <g>
        <path class="cls-1" d="M50.04,25.54c2.41-.07,2.9,2.4,2.91,4.25,0,2.57-.53,5.39-2.34,7.35-1.8,1.97-4.22,3.26-6.41,4.78-1.87,1.31-3.39,2.79-4.95,4.43-.87.91-1.37-.33-1.72-.93-.45-.77-1.2-1.47-1.83-2.1-1.35-1.34-2.83-2.56-4.35-3.71-1.8-1.36-3.84-2.7-5.02-4.69-1.27-2.15-1.71-5.1-.78-7.43,1.17-2.95,4.64-3.09,6.85-1.14,1.61,1.42,2.71,3.37,3.64,5.25.62,1.26,1.16,2.54,1.68,3.84.48,1.2.74,2.72,1.57,3.75.66-.39.78-1.75.98-2.43.29-.97.57-1.95,1-2.87,1.59-3.46,4.36-8.22,8.77-8.35Z"/>
        <path class="cls-1" d="M43.25,0c.58-.08.97.87,1.17,1.35,1.62,3.97.2,8.56-1.71,12.19-.29.56-.7,1.34-1.41.7-.89-.8-1.57-4-1.69-5.18-.17-1.63.2-3.22.86-4.72.34-.76.76-1.48,1.14-2.23.36-.7.67-1.45,1.31-1.95.12-.09.23-.14.33-.15Z"/>
        <path class="cls-1" d="M34.5,8.49s.04,0,.06,0c1.2-.09,1.64,2.33,1.92,3.1.75,2.06,1.85,3.98,2.44,6.1.79,2.8.59,5.73.39,8.59-.05.8-.1,4.49-1.83,3.35-.52-.34-.92-.92-1.28-1.41-1.68-2.36-3.49-5.23-4.14-8.05-.1-.42-.11-.85-.09-1.27.07-1.57.23-3.13.5-4.68.24-1.41.56-2.83,1.05-4.17.14-.37.44-1.43.96-1.55Z"/>
        <path class="cls-1" d="M49.35,8.72c1.39-.16,1.36,3.43,1.35,4.13-.03,2.15-.68,4.26-1.72,6.15-1.57,2.84-4.03,5.04-5.72,7.8-.28.45-.7,1.57-1.17,1.78-1.1.49-.57-3.74-.55-4.16.1-2.36.49-4.6,1.47-6.77,1.07-2.36,3.46-6.06,5.18-8.03.25-.28.78-.85,1.17-.89Z"/>
      </g>
      <path class="cls-1" d="M67.41,87.31c-.06.04-.6,1.16-.6,1.23,0,.18.82,1.18,1.01,1.7,2.42,6.45-3.25,10.35-9.06,10.81-8.77.69-16.7-3.92-23.97-8.1-.45.13.39.77.52.89,1.05.93,3.04,1.95,3.86,2.84.28.3.66.41.21.87-6.97,3.1-16.25,5.55-23.81,3.69-4.71-1.15-7.66-4.31-6.61-9.44.17-.81,1.57-2.69,1.57-2.9,0-.07-.55-1.19-.6-1.23-1.07-.79-1.85,3.38-2.58,4.11-2.69,2.69-6.98.43-7.3-3.21-.62-7.03,5.53-7.51,9.86-10.62,10.35-7.43,8.58-22.51,23-25.64,3.53-.77,7.7-.77,11.25-.07,14.02,2.74,12.75,17.15,22.02,24.86,4.34,3.61,12.3,4.07,11.07,11.79-.61,3.89-6.2,5.17-7.81,1.86-.18-.37-.9-4.26-2.03-3.42ZM27.91,77.61c.31-2.81-.23-6.12,0-8.99-3.45,5.2-5.87,9.99-10.57,14.28-.97.88-2.41,1.05-2.48,2.46-.03.53-.08.63.49.5,2.39-.56,9.77-2.39,11.1-4.07.64-.81,1.35-3.15,1.46-4.18ZM49.42,68.62v9.34c0,.37.84,3.06,1.1,3.48,1.91,3,8.9,2.56,11.77,4.45.79-1.78-1.86-2.63-3-3.69-1.01-.93-2.29-2.15-3.16-3.19-2.68-3.18-4.23-7.09-6.71-10.39ZM23.86,91.53c2.24.27,4.93-.2,7.23,0,0-.52-1.07-.68-1.49-.8-2.2-.65-4.06-.79-6.28-.08-.82.48.35.86.53.89Z"/>
    </g>
  </g>
</svg>