<?xml version="1.0" encoding="UTF-8"?>
<svg id="Capa_2" data-name="Capa 2" xmlns="http://www.w3.org/2000/svg" viewBox="0 0 89.11 114.32">
  <defs>
    <style>
      .cls-1 {
        fill: #2d2d2e;
      }
    </style>
  </defs>
  <g id="Capa_1-2" data-name="Capa 1">
    <g>
      <g>
        <path class="cls-1" d="M56.75,26.24c2.39.28,2.53,2.8,2.26,4.62-.37,2.54-1.3,5.25-3.37,6.94-2.07,1.69-4.65,2.62-7.03,3.81-2.04,1.02-3.75,2.27-5.53,3.67-.99.78-1.31-.52-1.56-1.16-.33-.83-.97-1.63-1.51-2.34-1.14-1.52-2.43-2.94-3.77-4.3-1.59-1.61-3.42-3.22-4.29-5.36-.94-2.31-.95-5.3.29-7.47,1.58-2.75,5.03-2.39,6.94-.14,1.39,1.64,2.2,3.72,2.84,5.72.43,1.33.78,2.68,1.1,4.04.31,1.26.34,2.79,1.01,3.94.7-.29,1.02-1.62,1.32-2.26.43-.92.85-1.84,1.4-2.7,2.07-3.19,5.5-7.51,9.88-7Z"/>
        <path class="cls-1" d="M53.71,0c.58,0,.84,1,.96,1.51,1.04,4.16-1.03,8.5-3.45,11.81-.37.51-.89,1.22-1.5.49-.76-.92-.98-4.18-.93-5.37.07-1.64.66-3.16,1.53-4.55.44-.71.96-1.36,1.45-2.04.45-.64.87-1.34,1.58-1.74.13-.07.25-.1.35-.1Z"/>
        <path class="cls-1" d="M43.83,7.14s.04,0,.06,0c1.2.08,1.29,2.54,1.46,3.35.44,2.15,1.25,4.2,1.54,6.39.38,2.89-.24,5.76-.85,8.56-.17.78-.75,4.43-2.29,3.05-.46-.42-.78-1.04-1.06-1.58-1.32-2.57-2.7-5.68-2.94-8.56-.04-.43.01-.85.1-1.27.3-1.54.68-3.06,1.17-4.56.44-1.36.96-2.72,1.64-3.97.19-.35.64-1.36,1.17-1.4Z"/>
        <path class="cls-1" d="M58.5,9.5c1.39.04.85,3.59.74,4.28-.34,2.13-1.28,4.12-2.59,5.84-1.97,2.59-4.72,4.41-6.78,6.89-.34.41-.92,1.45-1.42,1.59-1.16.32-.02-3.78.05-4.2.43-2.32,1.14-4.48,2.43-6.49,1.4-2.18,4.29-5.5,6.28-7.2.29-.24.89-.73,1.28-.71Z"/>
      </g>
      <path class="cls-1" d="M81.08,61.37c-.15.12,1.6,1.88.21,3.55-2.29,2.73-5.25-3.11-7.43-3.24-5.55,1.58-12.24.37-17.6,1.12-4.51.63-2.35,8.41-2.31,11.76.12,9.17-.69,18.25-.98,27.41.6,3.97,3.6,2.71,6.53,3.69,6.07,2.03,4.57,7.95-1.51,8.55-3.41.34-12.3-.12-14.22-3.4-1.7-2.9-.91-9.72-1.82-13.16l-1.62,3.83c-1.5,3.44-6.75,4.7-8.42.75-.67-1.58-.23-4.28-.85-5.14-.35-.48-4.36-2.42-5.36-3.1-4.81-3.27-12.38-9.21-9.44-15.87,1.59-3.59,6.05-4.84,9.66-5.14,1.73-.14,5.94.68,6.68-1.07.44-1.04-.32-6.39-.57-7.87-.71-4.19-.7-4.73-4.52-6.76-4.43-2.35-9.27-4.11-13.75-6.37h-.73c-1.23.72-3.34,1.97-4.77,2-1.1.02-1.43-.61-2.11-.71-2.18-.32-4.18.37-5.6-2.16-1.9-3.4,1.54-7.76,4.99-8.35,4.12-.7,5.71.88,9.19,1.93,9.92,3,17.93,4.56,28,6.55,10.96,2.17,22.82,5.99,34.07,3.54,1.94-.42,4.08-1.56,5.97-1.79,9.63-1.17,7.68,13.36-1.68,9.43ZM40.88,88.86c.04-1.14.02-3.75-1.07-4.39-1-.59-8.78-1.35-9.15-.36,1.27.71,2.52,1.93,3.88,2.46,2.26.88,4.51.16,6.34,2.29Z"/>
    </g>
  </g>
</svg>