<?xml version="1.0" encoding="UTF-8"?>
<svg id="Capa_2" data-name="Capa 2" xmlns="http://www.w3.org/2000/svg" viewBox="0 0 101.08 99.3">
  <defs>
    <style>
      .cls-1 {
        fill: #2d2d2e;
      }
    </style>
  </defs>
  <g id="Capa_1-2" data-name="Capa 1">
    <g>
      <path class="cls-1" d="M57.52,50.25c4,1.38,8.1.95,12.19.35,2.52-.37,9.79-1.67,11.71-2.84,2.16-1.32,4.62-7.58,7.01-7.57,3.03.02.38,5.92.79,6.35,2.35-.23,9.98-2,11.53-.3,1.21,1.33-1.16,3.14-2.26,3.72-2.21,1.15-4.95,1.28-7.37,1.64-.65.6,3.24,2.48,2.37,4.41-1.48,3.3-8.33-2.12-10.7-1.87-5.05,1.21-10,2.75-15.06,3.93-2.61.61-5.76.71-8.22,1.59-3.63,1.29-6.49,5.08-5.56,9.02,1.13,1.63,8.2-2.05,9.81-2.56,2.75-.87,6.15-1.71,8.69.19,4.19,3.14.01,13.43,1.29,14.37,2.62-.82,4.9-3.76,7.74-3.82,4.98-.1,3.68,5.37,1.88,8.23-2.15,3.4-10.59,8.39-14.57,8.54-7.69.28-2.44-12.34-4.14-16.03-.26-.57-.91-.96-1.54-1.02-3.23-.29-11.18,3.7-13.73,5.84-6.01,5.07-9.99,22.07-21.6,14.97-1.73-1.06-4.08-4.73-5.89-3.24-1.72,1.42-3.01,5.15-6.19,5.15-5.64,0-2.24-8.27-.15-10.86,2.01-2.49,7.94-8.4,11.37-6.96,2.01.85,3.38,10.17,6.71,4.48,2.89-4.94.82-11.4.86-16.51.03-3.41,1.49-7.3,1.61-10.45.1-2.51-1.25-2.72-3.24-3.39-2.48-.82-5.9-1.75-8.46-2.29-2.2-.47-5.44-1.47-7.17.27-1.2,1.21-2.78,6.66-4.96,6.47-2.31-.21-1.31-3.82-1.16-5.31-.66-.65-9.48,4.42-10.91,1.58-.91-1.8,1.65-3.51,2.91-4.37,5.83-3.97,14.74-6.48,21.77-6.08,5.07.29,9.7,2.26,14.62,3.08,1.41.24,16.04.59,18.02,1.27Z"/>
      <g>
        <path class="cls-1" d="M62.24,26.24c2.39.28,2.53,2.8,2.26,4.62-.37,2.54-1.3,5.25-3.37,6.94-2.07,1.69-4.65,2.62-7.03,3.81-2.04,1.02-3.75,2.27-5.53,3.67-.99.78-1.31-.52-1.56-1.16-.33-.83-.97-1.63-1.51-2.34-1.14-1.52-2.43-2.94-3.77-4.3-1.59-1.61-3.42-3.22-4.29-5.36-.94-2.31-.95-5.3.29-7.47,1.58-2.75,5.03-2.39,6.94-.14,1.39,1.64,2.2,3.72,2.84,5.72.43,1.33.78,2.68,1.1,4.04.31,1.26.34,2.79,1.01,3.94.7-.29,1.02-1.62,1.32-2.26.43-.92.85-1.84,1.4-2.7,2.07-3.19,5.5-7.51,9.88-7Z"/>
        <path class="cls-1" d="M59.2,0c.58,0,.84,1,.96,1.51,1.04,4.16-1.03,8.5-3.45,11.81-.37.51-.89,1.22-1.5.49-.76-.92-.98-4.18-.93-5.37.07-1.64.66-3.16,1.53-4.55.44-.71.96-1.36,1.45-2.04.45-.64.87-1.34,1.58-1.74.13-.07.25-.1.35-.1Z"/>
        <path class="cls-1" d="M49.32,7.14s.04,0,.06,0c1.2.08,1.29,2.54,1.46,3.35.44,2.15,1.25,4.2,1.54,6.39.38,2.89-.24,5.76-.85,8.56-.17.78-.75,4.43-2.29,3.05-.46-.42-.78-1.04-1.06-1.58-1.32-2.57-2.7-5.68-2.94-8.56-.04-.43.01-.85.1-1.27.3-1.54.68-3.06,1.17-4.56.44-1.36.96-2.72,1.64-3.97.19-.35.64-1.36,1.17-1.4Z"/>
        <path class="cls-1" d="M63.98,9.5c1.39.04.85,3.59.74,4.28-.34,2.13-1.28,4.12-2.59,5.84-1.97,2.59-4.72,4.41-6.78,6.89-.34.41-.92,1.45-1.42,1.59-1.16.32-.02-3.78.05-4.2.43-2.32,1.14-4.48,2.43-6.49,1.4-2.18,4.29-5.5,6.28-7.2.29-.24.89-.73,1.28-.71Z"/>
      </g>
    </g>
  </g>
</svg>