<?xml version="1.0" encoding="UTF-8"?>
<svg id="Capa_2" data-name="Capa 2" xmlns="http://www.w3.org/2000/svg" viewBox="0 0 101.02 85.75">
  <defs>
    <style>
      .cls-1 {
        fill: #2d2d2e;
      }
    </style>
  </defs>
  <g id="Capa_1-2" data-name="Capa 1">
    <g>
      <g>
        <path class="cls-1" d="M21.09,26.24c-2.39.28-2.53,2.8-2.26,4.62.37,2.54,1.3,5.25,3.37,6.94,2.07,1.69,4.65,2.62,7.03,3.81,2.04,1.02,3.75,2.27,5.53,3.67.99.78,1.31-.52,1.56-1.16.33-.83.97-1.63,1.51-2.34,1.14-1.52,2.43-2.94,3.77-4.3,1.59-1.61,3.42-3.22,4.29-5.36.94-2.31.95-5.3-.29-7.47-1.58-2.75-5.03-2.39-6.94-.14-1.39,1.64-2.2,3.72-2.84,5.72-.43,1.33-.78,2.68-1.1,4.04-.31,1.26-.34,2.79-1.01,3.94-.7-.29-1.02-1.62-1.32-2.26-.43-.92-.85-1.84-1.4-2.7-2.07-3.19-5.5-7.51-9.88-7Z"/>
        <path class="cls-1" d="M24.13,0c-.58,0-.84,1-.96,1.51-1.04,4.16,1.03,8.5,3.45,11.81.37.51.89,1.22,1.5.49.76-.92.98-4.18.93-5.37-.07-1.64-.66-3.16-1.53-4.55-.44-.71-.96-1.36-1.45-2.04-.45-.64-.87-1.34-1.58-1.74-.13-.07-.25-.1-.35-.1Z"/>
        <path class="cls-1" d="M34.01,7.14s-.04,0-.06,0c-1.2.08-1.29,2.54-1.46,3.35-.44,2.15-1.25,4.2-1.54,6.39-.38,2.89.24,5.76.85,8.56.17.78.75,4.43,2.29,3.05.46-.42.78-1.04,1.06-1.58,1.32-2.57,2.7-5.68,2.94-8.56.04-.43-.01-.85-.1-1.27-.3-1.54-.68-3.06-1.17-4.56-.44-1.36-.96-2.72-1.64-3.97-.19-.35-.64-1.36-1.17-1.4Z"/>
        <path class="cls-1" d="M19.35,9.5c-1.39.04-.85,3.59-.74,4.28.34,2.13,1.28,4.12,2.59,5.84,1.97,2.59,4.72,4.41,6.78,6.89.34.41.92,1.45,1.42,1.59,1.16.32.02-3.78-.05-4.2-.43-2.32-1.14-4.48-2.43-6.49-1.4-2.18-4.29-5.5-6.28-7.2-.29-.24-.89-.73-1.28-.71Z"/>
      </g>
      <path class="cls-1" d="M.35,80.78c1.4-3.31,7.5-1.89,10.22-4.94,5.37-6.01,8.42-19.15,15.58-23.55,4.67-2.87,13.6-3.6,18.46-.97,3.64,1.97,7.76,12.27,11.44,12.16,2.09-.06,7.59-9.42,9.35-11.43,11.61-13.26,17.82,3.6,19.28,13.84.12.84.71,3.84.06,4.26l-10.55-2.23-1.75-5.83c-.65-.15-.68.22-1,.58-1.23,1.41-1.79,3.79-2.97,5.31l-5.19,1.51c6.32.13,11.78-.49,17.98,1.24,2.38.66,4.69,1.89,7.05,2.47.64.16,1.42.27,2.27.39.4-1.48-.23-3.86-.22-5.1.04-4.92,3.85-9.87,8.19-5.24,2.41,2.57,3.4,15.74,1.4,18.75-1.63,2.46-3.17,2.18-5.2,2.26-2.17.34-4.52.21-6.16-.06-7.96-1.35-11.63-3.55-20.56-3.06-17.7.98-22.95,6.46-34.37-10.76-.89-1.34-2.67-5.65-4.11-5.76-1.52.43-2.33,1.82-3.28,2.95-2.83,3.38-5.23,7.36-7.72,11-.29,1.16,2.86,2.5,1.8,4.93-1.32,3.03-5.38.72-7.31.78-1.42.05-3.36,1.2-4.99,1.39-2.9.34-9.68-.25-7.71-4.89Z"/>
    </g>
  </g>
</svg>