<?xml version="1.0" encoding="UTF-8"?>
<svg id="Capa_2" data-name="Capa 2" xmlns="http://www.w3.org/2000/svg" viewBox="0 0 67.55 113.61">
  <defs>
    <style>
      .cls-1 {
        fill: #fff4df;
      }
    </style>
  </defs>
  <g id="Capa_4" data-name="Capa 4">
    <g>
      <path class="cls-1" d="M59.91,60.99c5.82-.47,7.33,5.45,7.58,9.91.34,6.22-.6,13.11-4.72,18.1-4.12,4.99-9.81,8.43-14.9,12.39-4.37,3.4-7.84,7.19-11.42,11.35-1.99,2.32-3.35-.62-4.27-2.03-1.19-1.82-3.08-3.4-4.7-4.85-3.44-3.07-7.17-5.85-11-8.44-4.54-3.07-9.65-6.05-12.75-10.71-3.34-5.04-4.78-12.14-2.84-17.9,2.46-7.29,10.83-8.07,16.44-3.63,4.09,3.24,7,7.81,9.48,12.26,1.66,2.96,3.12,6.02,4.55,9.09,1.32,2.86,2.14,6.48,4.28,8.88,1.54-1.02,1.66-4.33,2.07-6,.59-2.38,1.13-4.79,2.05-7.08,3.41-8.58,9.52-20.48,20.17-21.34Z"/>
      <path class="cls-1" d="M40.23.02c1.39-.26,2.46,1.98,3,3.13,4.44,9.4,1.58,20.7-2.6,29.73-.64,1.38-1.53,3.33-3.33,1.87-2.25-1.83-4.3-9.48-4.75-12.34-.62-3.94.07-7.83,1.48-11.54.72-1.89,1.65-3.69,2.48-5.54.78-1.73,1.43-3.6,2.93-4.9.27-.24.53-.37.79-.41Z"/>
      <path class="cls-1" d="M20.12,21.69s.1-.02.15-.03c2.89-.37,4.28,5.43,5.06,7.27,2.08,4.9,4.98,9.4,6.7,14.46,2.27,6.68,2.15,13.81,2.04,20.76-.03,1.94.32,10.9-4,8.34-1.3-.77-2.35-2.11-3.27-3.26-4.36-5.49-9.12-12.22-11.05-18.97-.29-1.01-.37-2.04-.38-3.07-.02-3.81.17-7.61.61-11.39.41-3.44,1-6.92,2.01-10.23.28-.92.87-3.53,2.13-3.88Z"/>
      <path class="cls-1" d="M56.11,20.35c3.34-.56,3.72,8.13,3.79,9.83.21,5.22-1.1,10.4-3.39,15.11-3.45,7.08-9.12,12.72-12.86,19.61-.61,1.13-1.5,3.89-2.62,4.46-2.59,1.32-1.85-8.97-1.86-10.01-.07-5.73.59-11.2,2.7-16.59,2.29-5.86,7.6-15.11,11.53-20.1.56-.72,1.78-2.15,2.71-2.31Z"/>
    </g>
  </g>
</svg>