<?xml version="1.0" encoding="UTF-8"?>
<svg id="Capa_2" data-name="Capa 2" xmlns="http://www.w3.org/2000/svg" viewBox="0 0 388.33 81.83">
  <defs>
    <style>
      .cls-1 {
        fill: #fff4df;
      }
    </style>
  </defs>
  <g id="Capa_4" data-name="Capa 4">
    <g>
      <g>
        <path class="cls-1" d="M330.13,14.48h-15.13v1.24h3.29c4.08,0,7.15,1.03,9.19,3.09,1.77,1.72,2.65,4.01,2.65,6.87,0,2.3-.02,5.76-.05,10.37-.03,4.58-.05,1.57-.05,3.81,0,2.86-.88,5.15-2.65,6.87-2.07,2.06-5.15,3.09-9.24,3.09h-18.79c-.12.55-.18,2.38-.18,3.08h29.9v28.87h-40.32c-3.23,0-5.5-.11-6.81-.32-1.92-.34-3.29-1.01-4.11-2.03-.95-1.14-1.42-2.92-1.42-5.35l-.05-12.92c0-1.97.46-3.7,1.37-5.21,1.22-2.03,3.06-3.04,5.53-3.04,1.8,0,3.34-.17,4.62-.51,1.07-.28,2.12-1.93,3.15-2.57h-3.15c-4.05,0-7.12-1.03-9.19-3.09-1.77-1.72-2.65-4.01-2.65-6.87,0-2.27.01.7.05-3.9.06-4.58.09-8,.09-10.28,0-2.86.87-5.15,2.61-6.87,2.07-2.06,5.15-3.09,9.24-3.09h20.03v-4.84c0-.86.23-1.71.69-2.53.52-.98,1.31-1.86,2.38-2.63,1.28-.89,2.88-1.58,4.8-2.07,2.22-.55,4.85-.83,7.86-.83,1.95,0,4.07.12,6.36.37v11.29ZM304.35,39.79v-14.01h-2.38v14.01h2.38Z"/>
        <path class="cls-1" d="M64.76,39.04c-6.2,0-11.22-1.69-11.22-7.92h0c0-4.39.87-7.92,2.61-10.59,2.08-3.16,5.16-4.74,9.25-4.74h30.32c4.06,0,7.13,1.58,9.2,4.74,1.77,2.67,2.66,6.2,2.66,10.59v50.66h-22.44c-1.9,0-3.44-1.55-3.44-3.45h0c-2.81,2.3-5.79,3.45-8.93,3.45h-7.24c-4.24,0-7.46-.81-9.66-2.44-2.57-1.87-3.85-4.88-3.85-9.03v-13.91c0-4.11,1.57-7.2,4.72-9.26,2.66-1.78,6.17-2.67,10.53-2.67h14.43v-8.34h-2.34c0,3.46-2.79,2.9-6.23,2.9h-8.38ZM81.7,52.4h-2.38v13.26h2.38v-13.26Z"/>
        <path class="cls-1" d="M345.51,39.13c-6.2,0-11.22-1.69-11.22-7.91h0c0-4.38.87-7.91,2.61-10.58,2.08-3.16,5.16-4.74,9.25-4.74h30.32c4.06,0,7.13,1.58,9.2,4.74,1.77,2.67,2.66,6.19,2.66,10.58v50.57h-22.44c-1.9,0-3.44-1.54-3.44-3.45h0c-2.81,2.3-5.79,3.45-8.93,3.45h-7.24c-4.24,0-7.46-.81-9.66-2.44-2.57-1.87-3.85-4.87-3.85-9.01v-13.88c0-4.11,1.57-7.19,4.72-9.24,2.66-1.78,6.17-2.67,10.53-2.67h14.43v-8.32h-2.34c0,3.45-2.79,2.9-6.23,2.9h-8.38ZM362.46,52.46h-2.38v13.24h2.38v-13.24Z"/>
        <path class="cls-1" d="M0,81.8V24.34c0-4.71,3.8-8.53,8.48-8.53h17.85v48.2h23.17v7.61c0,5.62-4.53,10.18-10.12,10.18H0Z"/>
        <path class="cls-1" d="M187.76,69.84v-10.12c0-3.01-.55-5.53-1.64-7.59-1.01-1.9-2.49-3.44-4.44-4.6-1.74-1.04-3.91-1.79-6.51-2.25-2.23-.4-4.85-.6-7.87-.6h-8.97c-.74,0-1.4-.3-1.88-.78-.48-.49-.78-1.15-.78-1.89,0-1.48,1.19-2.68,2.66-2.68h23.74c-.17-1.91.02-3.78.57-5.47.43-1.34,1.12-2.51,2.01-3.46v-10.76c0-2.08-1.68-3.76-3.75-3.76h-32.15c-4.37,0-7.88.89-10.54,2.67-3.15,2.08-4.72,5.17-4.72,9.25v11.59c0,4.2-.34,9.37,2.04,11.79,2.45,2.46,7.38,1.82,11.75,1.82h15.66c1.47,0,2.66,1.2,2.66,2.67v.02c0,1.47-1.19,2.68-2.66,2.68h-16.92c-5.19,0-9.4,4.23-9.4,9.45v10.56c0,1.89,1.52,3.42,3.4,3.42h32.5c4.33,0,9.79.36,12.48-1.42,3.14-2.08,2.77-6.43,2.77-10.54Z"/>
        <path class="cls-1" d="M214,53.6c-.66.5-1.28.97-1.88,1.45-1.77,1.42-3.25,3.07-4.93,5.1-1.43,1.72-3.1,1.97-3.98,1.97-2.92,0-4.32-2.36-4.85-3.25-.03-.06-.07-.12-.1-.16-.22-.35-.83-.91-1.32-1.36l-.26-.24c-1.37-1.27-2.97-2.54-4.89-3.88-.28-.19-.56-.39-.84-.58-.22-.15-.45-.3-.67-.46v29.61h26.33v-30.24c-.88.73-1.78,1.4-2.61,2.04Z"/>
        <path class="cls-1" d="M273.16,31.15c0-4.39.04-9.5-1.73-12.17-2.04-3.16-6.04-3.16-10.13-3.16h-30.32c-4.06,0-7.13,1.58-9.2,4.74-1.31,1.98-2.14,4.44-2.48,7.37.33.2.65.44.94.7,1.78,1.55,2.81,4.1,2.98,7.34.21,4.09-.49,7.58-2.1,10.38-.33.58-.7,1.13-1.11,1.65-.28.36-.58.7-.88,1.03v17.44c0,4.36.89,7.89,2.66,10.59,2.07,3.16,5.14,4.74,9.2,4.74h30.66c5.87,0,10.62-4.78,10.62-10.68v-8.68h-27.31v-5.27h12.92c4.36,0,9.6.18,12.26-1.56,3.15-2.09,2.99-6.24,2.99-10.32v-7.05c.03-3.13.04-5.49.04-7.09ZM247.34,47.72h-2.39v-16.16h2.39v16.16Z"/>
      </g>
      <g>
        <path class="cls-1" d="M218.98,36.12c-.08-1.54-.44-3.42-1.55-4.4-.24-.21-.51-.38-.82-.5-.38-.14-.81-.2-1.31-.16-.61.05-1.18.18-1.72.37-.06.02-.12.04-.17.06,0,0,0,0,0,0-3.25,1.25-5.47,4.83-6.96,8.16-.02.03-.03.07-.05.11-.33.75-.62,1.47-.88,2.17-.44,1.17-.71,2.39-1,3.61-.2.85-.25,2.53-1,3.05-1.04-1.22-1.44-3.07-2.07-4.52-.4-.9-.8-1.79-1.23-2.67-.02-.04-.04-.08-.06-.12h0c-.29-.62-.6-1.23-.92-1.84-1.21-2.27-2.62-4.6-4.6-6.24-.82-.68-1.76-1.13-2.72-1.3h0s-.09-.02-.14-.03c-.02,0-.04,0-.07-.01-.69-.1-1.37-.06-2.02.12-1.35.37-2.49,1.37-3.03,3.08-.66,2.04-.51,4.42.18,6.54.31.92.71,1.8,1.2,2.57.61.97,1.38,1.79,2.24,2.54,1.24,1.09,2.64,2,3.95,2.92,1.86,1.32,3.67,2.74,5.34,4.3.79.74,1.7,1.55,2.28,2.47.45.71,1.11,2.21,2.07,1.03,1.73-2.12,3.41-4.05,5.54-5.79,2.44-2,5.16-3.73,7.16-6.22.03-.03.05-.06.07-.09.28-.35.53-.73.75-1.12,1.37-2.4,1.69-5.38,1.55-8.1Z"/>
        <path class="cls-1" d="M202.08,11.7h0s0,.02,0,.02c.04.21.08.44.14.69.21.92.53,2.11.92,3.15.22.58.45,1.11.7,1.51.02.03.04.07.06.1.14.22.28.4.43.53.18.16.34.24.49.26.32.05.57-.17.76-.48.14-.22.26-.49.36-.73.17-.39.34-.79.5-1.2.71-1.78,1.29-3.69,1.6-5.62.01-.08.03-.16.04-.23,0,0,0,0,0,0h0c.42-2.76.26-5.56-.87-8.09-.27-.58-.79-1.73-1.46-1.59-.12.02-.25.09-.38.21-.73.66-1.04,1.61-1.42,2.49-.4.94-.85,1.85-1.2,2.82-.69,1.89-1.02,3.87-.72,5.88.01.09.03.18.04.28Z"/>
        <path class="cls-1" d="M193.88,25.59c.24.88.57,1.76.95,2.62.02.04.04.08.06.13,0,0,0,0,0,.01h0s.01.04.03.06c1.14,2.46,2.78,4.82,4.31,6.85.44.59.95,1.27,1.58,1.66.35.22.63.27.87.21.04-.01.07-.02.1-.04.26-.12.45-.4.59-.76.01-.04.03-.08.04-.13.37-1.13.32-2.94.33-3.52.03-1.66.05-3.35-.04-5.02-.02-.33-.04-.66-.07-.99-.07-.79-.17-1.59-.32-2.37-.12-.62-.27-1.24-.45-1.84-.01-.06-.04-.13-.06-.19h0c-.01-.06-.03-.11-.05-.16-.13-.4-.27-.8-.43-1.19t0,0c-.03-.08-.06-.16-.1-.24,0,0,0,0,0,0-.7-1.75-1.61-3.39-2.37-5.11-.12-.27-.24-.54-.35-.82-.16-.38-.36-1.11-.65-1.82h0s-.03-.08-.05-.12c-.4-.97-.96-1.87-1.76-1.76-.03,0-.05.01-.07.02-.61.17-.9,1.51-1.03,1.97-.24.83-.43,1.68-.59,2.54-.16.89-.28,1.78-.38,2.68-.22,1.92-.31,3.86-.3,5.8,0,.05,0,.1,0,.14,0,.48.05.95.18,1.42Z"/>
        <path class="cls-1" d="M206.46,22.03s-.03.08-.04.13c-.02.06-.04.11-.06.17-.02.06-.04.13-.06.19h0c-.2.59-.36,1.18-.49,1.78-.18.78-.31,1.57-.39,2.37-.04.33-.07.66-.09.99-.06.85-.09,1.71-.07,2.58,0,.24-.07,1.47-.04,2.68,0,.07,0,.14.01.21.06,1.34.28,2.56.93,2.22.33-.17.61-.75.85-1.31.04-.09.07-.18.11-.27.12-.27.22-.52.31-.7.92-1.77,2.07-3.37,3.2-4.99h0c.05-.07.09-.14.14-.21.04-.07.1-.14.14-.21.23-.33.45-.66.67-.99.52-.77,1.01-1.55,1.46-2.37.22-.4.43-.81.62-1.23,1.08-2.34,1.72-4.92,1.65-7.51,0-.06,0-.12,0-.19-.03-.87-.22-5.3-1.84-5.01-.37.06-.82.55-1.13.93-.05.06-.1.12-.14.17-.02.02-.03.05-.05.07-.79,1.06-1.7,2.49-2.57,4.01-1.22,2.14-2.37,4.48-3.02,6.22-.03.08-.06.17-.09.25Z"/>
      </g>
    </g>
  </g>
</svg>