<?xml version="1.0" encoding="UTF-8"?>
<svg id="Capa_2" data-name="Capa 2" xmlns="http://www.w3.org/2000/svg" viewBox="0 0 467.83 104.13">
  <defs>
    <style>
      .cls-1 {
        fill: #fff4df;
      }
    </style>
  </defs>
  <g id="Capa_4" data-name="Capa 4">
    <g>
      <g>
        <path class="cls-1" d="M415.15,61.89c-.1,0-.21,0-.63.16-1.57.58-3.19.94-4.76.94-1.78,0-3.45-.31-5.07-.68-1.67-.37-3.29-.63-4.91-.63-2.51,0-5.07.73-7.84,3.55-.21.21-.26.42-.26.68,0,.47.42.89.94.89.21,0,.47-.1.63-.26,2.35-2.35,4.55-3.03,6.69-3.03,1.46,0,2.88.31,4.39.63,1.36.26,2.72.58,3.82.63.84.05,1.41.21,1.41.68,0,.16-.05.37-.21.58l-4.76,6.95c-.12.15-1.3,1.73-1.42,1.91-.21.32-1.37,2.37-1.56,2.69-3.19,5.28-15.99,24.15-22.32,24.15-1.93,0-2.82-1.78-2.82-3.76,0-8.22,6.91-12.02,14.93-14.91.8-.29,1.47-.85,1.86-1.61,0-.01.01-.02.02-.03.21-.4-.17-.86-.6-.74-9.77,2.67-14.2,5.99-17.4,13.78v.1c-.52,1.31-.78,2.67-.78,3.92,0,3.08,1.52,5.65,4.91,5.65.42,0,.89-.05,1.25-.1,7.27-1.05,18.71-18.5,24.2-26.92,1.1-1.41,2.98-4.6,3.08-4.76l3.97-5.75,1.2-1.62c.42-.58.89-.78,1.57-.99l.47-.16c.68-.21.94-.68.94-1.05,0-.52-.42-.89-.94-.89Z"/>
        <path class="cls-1" d="M401.4,87.87c1.05-1.83,3.19-4.34,4.76-6.17l1.31-1.57c.37-.47.89-.73,1.36-.73.63,0,1.31.47,1.31,1.2,0,.26-.1.63-.37.89l-.99,1.15c-1.36,1.57-3.66,4.18-4.6,5.75-.52.89-.78,1.67-.78,2.3,0,.73.37,1.15,1.1,1.15,3.45,0,10.77-9.41,12.86-11.92.26-.31.73-.52,1.15-.52.68,0,1.41.47,1.41,1.2,0,.26-.1.58-.37.84l-1.25,1.46c-1.31,1.52-3.4,3.66-4.23,4.97-.58.89-.84,1.62-.84,2.2,0,.73.42,1.15,1.15,1.15,1.99,0,5.54-2.61,7.11-4.6.21-.26.52-.37.78-.37.47,0,.89.37.89.78,0,.21-.05.42-.26.63l-.05.05c-2.09,2.04-6.01,5.54-8.94,5.54-.78,0-1.57-.26-2.09-.94-.47-.58-1.05-.84-1.67-.84s-1.31.21-2.25.78c-1.52.89-3.03,1.31-4.23,1.31-1.88,0-3.19-.99-3.19-2.72,0-.84.26-1.83.94-2.98Z"/>
        <path class="cls-1" d="M418.13,91.38c1.78-2.82,3.97-5.54,5.96-8.31l2.14-2.98c.37-.52.89-.73,1.25-.73.42,0,.84.16.99.58.1.31.31.42.52.42s.42-.05.73-.21c.84-.37,1.67-.52,2.46-.52,1.88,0,3.4.94,3.4,2.82,0,.68-.21,1.52-.78,2.4-.37.58-.89,1.15-1.36,1.83l-1.05,1.41c-.84,1.1-1.15,2.04-1.15,2.56,0,.42.21.63.58.63,1.57,0,5.28-3.66,6.48-4.65l.31-.26c.21-.16.37-.26.58-.26.47,0,.89.42.89.89,0,.21-.05.37-.21.58-2.04,2.09-5.44,5.54-8.52,5.54-1.52,0-2.51-.84-2.51-2.35,0-.94.42-2.2,1.36-3.61l2.25-3.14c.47-.63.58-1.1.58-1.46,0-.63-.52-.84-1.25-.84-2.61,0-6.01,2.88-7.42,4.91l-4.13,5.96c-.26.37-.68.63-1.1.63-.68,0-1.2-.58-1.2-1.2,0-.21.05-.42.21-.63Z"/>
        <path class="cls-1" d="M442.27,73.24c.94,0,2.35.31,3.97.58l1.2.21,1.93-2.35c.58-.68.99-.84,1.41-.84.68,0,1.41.47,1.41,1.2,0,.26-.1.52-.31.73l-1.46,1.73c.84.1,1.57.16,2.2.16,1.41,0,2.51-.47,4.49-1.46.21-.1.47-.21.78-.21.42,0,1.1.26,1.1.84,0,1.41-5.23,2.56-6.9,2.56-.58,0-1.67-.16-2.87-.37l-.89,1.1c-2.72,3.35-7.79,9.3-8.42,12.39-.05.26-.1.47-.1.68,0,.73.42,1.25,1.36,1.25,2.4,0,6.95-3.19,8.57-4.91l.05-.05c.16-.16.42-.21.68-.21.58,0,.99.31.99.73,0,.16-.1.42-.31.58l-.05.05c-2.09,2.09-7.32,5.8-11.08,5.8-2.09,0-3.14-1.15-3.14-2.72,0-.26.05-.52.1-.84.68-3.29,6.12-10.24,8.41-13.22l.84-1.1c-1.46-.26-2.77-.47-4.03-.47-1.57,0-3.03.37-4.39,1.1-.58.31-.84.37-1.1.37-.63,0-1.05-.47-1.05-.94,0-1.46,4.91-2.35,6.59-2.35Z"/>
        <path class="cls-1" d="M449.23,89.02c0-4.5,6.12-9.51,10.61-9.51,2.3,0,3.87,1.31,3.87,3.03,0,3.76-7.37,5.02-10.3,5.28-.84.16-1.05.73-1.05,1.36,0,1.73,1.93,2.25,3.82,2.25,3.87,0,7.32-2.2,10.09-4.97.16-.16.42-.26.63-.26.47,0,.94.37.94.84,0,.16-.05.37-.26.58-3.5,3.4-7.48,5.65-12.23,5.65-4.18,0-6.12-1.78-6.12-4.23ZM453.72,85.73c0,.21.1.37.58.37l.26-.05c1.2-.26,6.64-.99,6.64-2.93,0-.63-.68-1.05-1.41-1.05-1.67,0-6.06,2.3-6.06,3.66Z"/>
      </g>
      <g>
        <g>
          <path class="cls-1" d="M326.44,14.32h-14.96v1.23h3.25c4.04,0,7.07,1.02,9.09,3.05,1.75,1.7,2.62,3.96,2.62,6.79,0,2.28-.02,5.7-.05,10.25-.03,4.53-.05,1.55-.05,3.77,0,2.83-.87,5.09-2.62,6.79-2.05,2.04-5.09,3.05-9.13,3.05h-18.58c-.12.55-.18,2.35-.18,3.05h29.57v28.55h-39.87c-3.19,0-5.44-.11-6.74-.32-1.9-.33-3.25-1-4.07-2.01-.93-1.12-1.4-2.89-1.4-5.29l-.05-12.78c0-1.94.45-3.66,1.36-5.15,1.21-2.01,3.03-3.01,5.47-3.01,1.78,0,3.3-.17,4.57-.5,1.05-.27,2.09-1.91,3.12-2.55h-3.12c-4.01,0-7.04-1.02-9.09-3.05-1.75-1.7-2.62-3.96-2.62-6.79,0-2.25.01.7.05-3.86.06-4.53.09-7.91.09-10.16,0-2.83.86-5.09,2.58-6.79,2.05-2.04,5.09-3.05,9.13-3.05h19.8v-4.79c0-.85.23-1.69.68-2.51.51-.97,1.3-1.84,2.35-2.6,1.27-.88,2.85-1.56,4.75-2.05,2.2-.55,4.79-.82,7.78-.82,1.93,0,4.02.12,6.28.36v11.17ZM300.94,39.34v-13.85h-2.35v13.85h2.35Z"/>
          <path class="cls-1" d="M64.03,38.6c-6.13,0-11.09-1.67-11.09-7.83h0c0-4.34.86-7.83,2.58-10.47,2.05-3.13,5.1-4.69,9.15-4.69h29.98c4.01,0,7.05,1.56,9.1,4.69,1.75,2.64,2.63,6.13,2.63,10.47v50.09h-22.19c-1.88,0-3.4-1.53-3.4-3.42h0c-2.78,2.28-5.72,3.42-8.83,3.42h-7.15c-4.2,0-7.38-.8-9.55-2.41-2.54-1.85-3.8-4.83-3.8-8.93v-13.75c0-4.07,1.55-7.12,4.66-9.15,2.63-1.76,6.1-2.64,10.41-2.64h14.27v-8.24h-2.31c0,3.42-2.76,2.87-6.16,2.87h-8.29ZM80.79,51.81h-2.35v13.12h2.35v-13.12Z"/>
          <path class="cls-1" d="M341.65,38.69c-6.13,0-11.09-1.67-11.09-7.82h0c0-4.33.86-7.82,2.58-10.46,2.05-3.12,5.1-4.68,9.15-4.68h29.98c4.01,0,7.05,1.56,9.1,4.68,1.75,2.64,2.63,6.12,2.63,10.46v50.01h-22.19c-1.88,0-3.4-1.53-3.4-3.41h0c-2.78,2.27-5.72,3.41-8.83,3.41h-7.15c-4.2,0-7.38-.8-9.55-2.41-2.54-1.85-3.8-4.82-3.8-8.91v-13.73c0-4.06,1.55-7.11,4.66-9.14,2.63-1.76,6.1-2.64,10.41-2.64h14.27v-8.23h-2.31c0,3.41-2.76,2.86-6.16,2.86h-8.29ZM358.4,51.88h-2.35v13.09h2.35v-13.09Z"/>
          <path class="cls-1" d="M0,80.89V24.07c0-4.66,3.75-8.43,8.39-8.43h17.65v47.66h22.91v7.53c0,5.56-4.48,10.06-10.01,10.06H0Z"/>
          <path class="cls-1" d="M185.66,69.06v-10.01c0-2.97-.54-5.47-1.63-7.5-1-1.88-2.46-3.4-4.39-4.55-1.72-1.03-3.87-1.77-6.43-2.23-2.2-.39-4.8-.59-7.78-.59h-8.87c-.73,0-1.39-.29-1.86-.77-.47-.48-.77-1.14-.77-1.87,0-1.46,1.18-2.65,2.63-2.65h23.48c-.17-1.89.02-3.74.57-5.41.43-1.32,1.11-2.48,1.99-3.42v-10.64c0-2.05-1.66-3.72-3.7-3.72h-31.79c-4.32,0-7.79.88-10.42,2.64-3.11,2.06-4.67,5.11-4.67,9.14v11.46c0,4.16-.34,9.27,2.02,11.66,2.42,2.43,7.3,1.8,11.61,1.8h15.48c1.45,0,2.63,1.18,2.63,2.64v.02c0,1.46-1.18,2.65-2.63,2.65h-16.73c-5.14,0-9.3,4.18-9.3,9.34v10.45c0,1.87,1.5,3.38,3.36,3.38h32.14c4.28,0,9.68.36,12.34-1.4,3.11-2.06,2.74-6.36,2.74-10.42Z"/>
          <path class="cls-1" d="M211.61,53c-.65.49-1.27.96-1.86,1.43-1.75,1.41-3.21,3.03-4.87,5.04-1.41,1.7-3.07,1.95-3.93,1.95-2.89,0-4.27-2.34-4.8-3.22-.03-.06-.07-.11-.1-.16-.22-.35-.82-.9-1.3-1.34l-.26-.23c-1.36-1.26-2.94-2.51-4.84-3.84-.27-.19-.55-.38-.83-.57-.22-.15-.44-.3-.66-.46v29.28h26.04v-29.9c-.87.73-1.76,1.39-2.58,2.01Z"/>
          <path class="cls-1" d="M270.11,30.8c0-4.34.04-9.39-1.71-12.04-2.02-3.12-5.97-3.13-10.01-3.13h-29.98c-4.01,0-7.05,1.56-9.1,4.69-1.3,1.96-2.12,4.39-2.46,7.29.33.2.64.44.93.7,1.76,1.53,2.78,4.05,2.94,7.25.21,4.04-.49,7.49-2.08,10.26-.33.57-.7,1.12-1.1,1.63-.28.35-.57.7-.87,1.02v17.25c0,4.31.88,7.81,2.63,10.48,2.05,3.12,5.08,4.69,9.1,4.69h30.32c5.8,0,10.5-4.73,10.5-10.56v-8.59h-27.01v-5.21h12.77c4.31,0,9.49.18,12.12-1.55,3.11-2.07,2.96-6.17,2.96-10.2v-6.97c.03-3.09.04-5.43.04-7.01ZM244.57,47.19h-2.36v-15.98h2.36v15.98Z"/>
        </g>
        <g>
          <path class="cls-1" d="M216.53,35.72c-.08-1.53-.44-3.39-1.53-4.35-.23-.21-.5-.38-.81-.49-.37-.14-.8-.2-1.29-.15-.6.05-1.17.18-1.7.37-.06.02-.11.04-.17.06,0,0,0,0,0,0-3.22,1.24-5.41,4.77-6.88,8.07-.02.03-.03.07-.05.11-.33.74-.61,1.46-.87,2.14-.44,1.15-.7,2.36-.99,3.57-.2.84-.25,2.5-.99,3.02-1.03-1.21-1.42-3.04-2.05-4.47-.39-.89-.79-1.77-1.21-2.64-.02-.04-.04-.08-.06-.12h0c-.29-.61-.59-1.21-.91-1.82-1.19-2.24-2.59-4.54-4.55-6.17-.81-.67-1.74-1.11-2.69-1.29h0s-.09-.02-.14-.03c-.02,0-.04,0-.07-.01-.68-.1-1.36-.06-1.99.12-1.33.37-2.46,1.36-3,3.04-.65,2.02-.51,4.38.17,6.47.3.91.7,1.78,1.19,2.54.6.96,1.37,1.77,2.21,2.51,1.23,1.07,2.61,1.98,3.9,2.89,1.84,1.3,3.63,2.71,5.28,4.25.78.73,1.68,1.53,2.26,2.45.44.71,1.1,2.19,2.05,1.02,1.71-2.1,3.37-4.01,5.47-5.72,2.41-1.97,5.11-3.68,7.08-6.15.03-.03.05-.06.07-.09.27-.35.52-.72.74-1.11,1.35-2.37,1.67-5.32,1.53-8.01Z"/>
          <path class="cls-1" d="M199.82,11.57h0s0,.02,0,.02c.04.2.08.43.14.68.2.91.53,2.09.91,3.12.21.57.45,1.09.7,1.5.02.03.04.07.06.1.14.22.28.4.43.52.18.16.34.24.49.26.32.05.56-.17.75-.47.14-.22.26-.48.36-.72.17-.39.34-.78.49-1.18.7-1.76,1.27-3.65,1.58-5.56.01-.08.03-.15.04-.23,0,0,0,0,0,0h0c.41-2.73.26-5.5-.86-8-.26-.58-.78-1.71-1.44-1.57-.12.02-.24.09-.38.21-.72.65-1.03,1.59-1.4,2.47-.4.93-.84,1.83-1.19,2.79-.68,1.87-1.01,3.83-.71,5.81.01.09.03.18.04.28Z"/>
          <path class="cls-1" d="M191.71,25.31c.23.87.56,1.74.94,2.59.02.04.04.08.06.13,0,0,0,0,0,.01h0s.01.04.03.06c1.13,2.43,2.74,4.76,4.27,6.77.43.58.94,1.26,1.57,1.64.34.21.63.27.86.21.04-.01.07-.02.1-.04.26-.12.44-.39.58-.76.01-.04.03-.08.04-.13.37-1.12.31-2.91.33-3.48.03-1.64.05-3.32-.04-4.97-.02-.33-.04-.65-.07-.98-.07-.79-.17-1.57-.31-2.34-.12-.61-.26-1.22-.44-1.82-.01-.06-.04-.13-.06-.19h0c-.01-.06-.03-.11-.05-.16-.13-.4-.27-.79-.43-1.18t0,0c-.03-.08-.06-.16-.1-.23,0,0,0,0,0,0-.7-1.73-1.59-3.35-2.34-5.05-.12-.27-.23-.54-.34-.81-.16-.38-.36-1.1-.64-1.8h0s-.03-.08-.05-.12c-.4-.96-.95-1.85-1.74-1.74-.03,0-.05.01-.07.02-.6.17-.88,1.49-1.02,1.95-.24.82-.43,1.66-.58,2.51-.16.88-.28,1.76-.38,2.65-.21,1.9-.31,3.82-.3,5.74,0,.05,0,.09,0,.14,0,.47.05.94.18,1.4Z"/>
          <path class="cls-1" d="M204.15,21.79s-.03.08-.04.12c-.02.06-.04.11-.06.17-.02.06-.04.12-.06.19h0c-.2.59-.36,1.17-.49,1.76-.17.77-.3,1.55-.39,2.34-.04.32-.07.65-.09.98-.06.84-.09,1.69-.07,2.55,0,.24-.07,1.46-.04,2.65,0,.07,0,.14.01.21.06,1.32.28,2.53.92,2.19.32-.17.6-.74.84-1.29.04-.09.07-.18.11-.26.11-.27.21-.52.3-.7.91-1.75,2.04-3.33,3.17-4.93h0c.05-.07.09-.14.14-.2.04-.07.1-.14.14-.21.23-.32.45-.65.67-.98.51-.76,1-1.53,1.44-2.34.21-.39.42-.8.61-1.21,1.07-2.32,1.7-4.86,1.63-7.43,0-.06,0-.12,0-.18-.03-.86-.22-5.24-1.82-4.95-.36.06-.81.55-1.11.92-.05.06-.1.12-.14.17-.02.02-.03.05-.05.07-.78,1.04-1.68,2.46-2.54,3.97-1.21,2.12-2.35,4.43-2.99,6.15-.03.08-.06.17-.09.25Z"/>
        </g>
      </g>
    </g>
  </g>
</svg>